<svg width="322" height="59" viewBox="0 0 322 59" fill="none" xmlns="http://www.w3.org/2000/svg">
<path d="M2.09536 24.4067L37.4076 56.7513L72.7198 38.6616L108.032 38.0781L143.344 40.0788L178.656 25.8238L213.969 9.2347L249.281 2.06554L284.593 2.48235L319.905 54.5838" stroke="#2603E9"/>
<path d="M2.0951 25.9682C2.97564 25.9682 3.68946 25.2684 3.68946 24.4052C3.68946 23.542 2.97564 22.8422 2.0951 22.8422C1.21456 22.8422 0.500736 23.542 0.500736 24.4052C0.500736 25.2684 1.21456 25.9682 2.0951 25.9682Z" fill="white" stroke="#2603E9"/>
<path d="M37.4072 58.3126C38.2878 58.3126 39.0016 57.6128 39.0016 56.7496C39.0016 55.8864 38.2878 55.1866 37.4072 55.1866C36.5267 55.1866 35.8129 55.8864 35.8129 56.7496C35.8129 57.6128 36.5267 58.3126 37.4072 58.3126Z" fill="white" stroke="#2603E9"/>
<path d="M72.7194 40.2236C73.5999 40.2236 74.3137 39.5238 74.3137 38.6605C74.3137 37.7973 73.5999 37.0975 72.7194 37.0975C71.8388 37.0975 71.125 37.7973 71.125 38.6605C71.125 39.5238 71.8388 40.2236 72.7194 40.2236Z" fill="white" stroke="#2603E9"/>
<path d="M108.032 39.6407C108.912 39.6407 109.626 38.9409 109.626 38.0776C109.626 37.2144 108.912 36.5146 108.032 36.5146C107.151 36.5146 106.437 37.2144 106.437 38.0776C106.437 38.9409 107.151 39.6407 108.032 39.6407Z" fill="white" stroke="#2603E9"/>
<path d="M143.344 41.6397C144.225 41.6397 144.939 40.9399 144.939 40.0767C144.939 39.2134 144.225 38.5136 143.344 38.5136C142.464 38.5136 141.75 39.2134 141.75 40.0767C141.75 40.9399 142.464 41.6397 143.344 41.6397Z" fill="white" stroke="#2603E9"/>
<path d="M178.656 27.3844C179.537 27.3844 180.251 26.6846 180.251 25.8213C180.251 24.9581 179.537 24.2583 178.656 24.2583C177.776 24.2583 177.062 24.9581 177.062 25.8213C177.062 26.6846 177.776 27.3844 178.656 27.3844Z" fill="white" stroke="#2603E9"/>
<path d="M213.968 10.7975C214.849 10.7975 215.563 10.0977 215.563 9.23447C215.563 8.37123 214.849 7.67143 213.968 7.67143C213.088 7.67143 212.374 8.37123 212.374 9.23447C212.374 10.0977 213.088 10.7975 213.968 10.7975Z" fill="white" stroke="#2603E9"/>
<path d="M249.281 3.62682C250.161 3.62682 250.875 2.92703 250.875 2.06378C250.875 1.20053 250.161 0.500736 249.281 0.500736C248.4 0.500736 247.686 1.20053 247.686 2.06378C247.686 2.92703 248.4 3.62682 249.281 3.62682Z" fill="white" stroke="#2603E9"/>
<path d="M284.593 4.04541C285.474 4.04541 286.188 3.34561 286.188 2.48236C286.188 1.61912 285.474 0.91932 284.593 0.91932C283.713 0.91932 282.999 1.61912 282.999 2.48236C282.999 3.34561 283.713 4.04541 284.593 4.04541Z" fill="white" stroke="#2603E9"/>
<path d="M319.905 56.1454C320.785 56.1454 321.499 55.4456 321.499 54.5824C321.499 53.7191 320.785 53.0193 319.905 53.0193C319.024 53.0193 318.31 53.7191 318.31 54.5824C318.31 55.4456 319.024 56.1454 319.905 56.1454Z" fill="white" stroke="#2603E9"/>
</svg>
