<svg width="20" height="24" viewBox="0 0 20 24" fill="none" xmlns="http://www.w3.org/2000/svg">
<path d="M9.94994 2.18434L7.94161 7.73287H5.93328C5.59994 7.73287 5.27494 7.76254 4.95828 7.84166L5.79161 5.46796L5.82494 5.37895L5.87494 5.2207C5.89994 5.15147 5.91661 5.09213 5.94161 5.04267C6.90827 2.38215 7.99161 1.55136 9.94994 2.18434Z" fill="#A18E80"/>
<path d="M15.6083 8.0023L15.5916 7.99241C15.0916 7.82427 14.5833 7.73526 14.0666 7.73526H8.84997L10.725 2.56257L10.75 2.49334C10.8666 2.54279 10.9916 2.61202 11.1166 2.66148L12.9583 3.58129C13.9833 4.0857 14.7 4.60989 15.1416 5.24288C15.2166 5.36156 15.2833 5.47035 15.35 5.59893C15.425 5.7374 15.4833 5.87586 15.5166 6.02422C15.55 6.11323 15.575 6.19236 15.5916 6.28137C15.7166 6.78578 15.725 7.35942 15.6083 8.0023Z" fill="#A18E80"/>
<path d="M10.4333 17.4658H10.6417C10.8917 17.4658 11.1 17.1988 11.1 16.8724C11.1 16.457 11 16.3977 10.7833 16.2988L10.4333 16.1504V17.4658Z" fill="#A18E80"/>
<path d="M15.2416 9.41512C14.8666 9.28655 14.4749 9.21731 14.0666 9.21731H5.93327C5.36661 9.21731 4.83327 9.34589 4.33327 9.60304C2.88328 10.3448 1.86661 12.0559 1.86661 14.0438V15.9725C1.86661 16.2098 1.88328 16.4373 1.90828 16.6747C2.09161 19.8198 3.50828 21.5012 6.15827 21.7089C6.34994 21.7386 6.5416 21.7584 6.74994 21.7584H13.2499C16.3333 21.7584 17.9583 20.0176 18.1166 16.556C18.1249 16.3681 18.1333 16.1703 18.1333 15.9725V14.0438C18.1333 11.8581 16.9083 10.0184 15.2416 9.41512ZM11.0666 15.3296C11.4499 15.4878 11.9666 15.8241 11.9666 16.8725C11.9666 17.7725 11.3749 18.4945 10.6416 18.4945H10.4333V18.7121C10.4333 18.9989 10.2416 19.2264 9.99993 19.2264C9.75827 19.2264 9.5666 18.9989 9.5666 18.7121V18.4945H9.4916C8.6916 18.4945 8.03327 17.6934 8.03327 16.7044C8.03327 16.4175 8.22493 16.1901 8.4666 16.1901C8.70827 16.1901 8.89993 16.4175 8.89993 16.7044C8.89993 17.1198 9.1666 17.4659 9.4916 17.4659H9.5666V15.7944L8.93327 15.5274C8.54993 15.3692 8.03327 15.0329 8.03327 13.9845C8.03327 13.0845 8.62493 12.3625 9.35827 12.3625H9.5666V12.1449C9.5666 11.8581 9.75827 11.6306 9.99993 11.6306C10.2416 11.6306 10.4333 11.8581 10.4333 12.1449V12.3625H10.5083C11.3083 12.3625 11.9666 13.1636 11.9666 14.1526C11.9666 14.4395 11.7749 14.6669 11.5333 14.6669C11.2916 14.6669 11.0999 14.4395 11.0999 14.1526C11.0999 13.7372 10.8333 13.3911 10.5083 13.3911H10.4333V15.0625L11.0666 15.3296Z" fill="#A18E80"/>
<path d="M8.89999 13.9851C8.89999 14.4005 8.99999 14.4598 9.21666 14.5587L9.56666 14.7071V13.3916H9.35832C9.09999 13.3916 8.89999 13.6587 8.89999 13.9851Z" fill="#A18E80"/>
</svg>
