<svg width="19" height="22" viewBox="0 0 19 22" fill="none" xmlns="http://www.w3.org/2000/svg">
<path d="M15.414 8.21036C14.8966 7.53208 14.1166 7.13794 13.0354 7.00045V6.30383C13.0354 5.04809 12.5874 3.83818 11.7997 2.9949C11.0042 2.1333 9.96936 1.73 8.89587 1.84915C7.05012 2.05997 5.49781 4.17732 5.49781 6.46882V7.00045C4.4166 7.13794 3.63658 7.53208 3.11914 8.21036C2.37001 9.20025 2.39318 10.5202 2.47813 11.4368L3.01874 16.5422C3.18092 18.3296 3.79104 20.1628 7.11191 20.1628H11.4213C14.7421 20.1628 15.3523 18.3296 15.5144 16.5514L16.055 11.4276C16.14 10.5202 16.1632 9.20025 15.414 8.21036ZM9.00399 3.12323C9.77629 3.04073 10.51 3.32488 11.0815 3.939C11.6452 4.54396 11.9619 5.40556 11.9619 6.30383V6.94545H6.5713V6.46882C6.5713 4.83727 7.70657 3.26988 9.00399 3.12323ZM9.26657 17.028C7.65251 17.028 6.33961 15.4698 6.33961 13.5541C6.33961 11.6384 7.65251 10.0802 9.26657 10.0802C10.8807 10.0802 12.1936 11.6384 12.1936 13.5541C12.1936 15.4698 10.8807 17.028 9.26657 17.028Z" fill="#FF0000"/>
<path d="M8.82537 15.2529C8.67864 15.2529 8.5319 15.1887 8.41606 15.0512L7.65149 14.1438C7.42753 13.878 7.42753 13.438 7.65149 13.1722C7.87545 12.9064 8.24615 12.9064 8.47012 13.1722L8.84082 13.6122L10.0765 12.2556C10.3082 11.999 10.6789 12.0173 10.8951 12.2923C11.1114 12.5673 11.0959 13.0072 10.8642 13.2639L9.21924 15.0696C9.1034 15.1887 8.96439 15.2529 8.82537 15.2529Z" fill="#FF0000"/>
</svg>
