<svg width="322" height="63" viewBox="0 0 322 63" fill="none" xmlns="http://www.w3.org/2000/svg">
<path d="M2.09536 13.903L37.4076 33.0763L72.7198 44.5803L108.032 45.5807L143.344 56.8346L178.656 2.06554L213.969 49.2486L249.281 3.98287L284.593 60.0857L319.905 37.1611" stroke="#D5ACE5"/>
<path d="M2.0951 15.4645C2.97564 15.4645 3.68946 14.7647 3.68946 13.9015C3.68946 13.0382 2.97564 12.3384 2.0951 12.3384C1.21456 12.3384 0.500736 13.0382 0.500736 13.9015C0.500736 14.7647 1.21456 15.4645 2.0951 15.4645Z" fill="white" stroke="#D5ACE5"/>
<path d="M37.4072 34.6372C38.2878 34.6372 39.0016 33.9374 39.0016 33.0742C39.0016 32.2109 38.2878 31.5111 37.4072 31.5111C36.5267 31.5111 35.8129 32.2109 35.8129 33.0742C35.8129 33.9374 36.5267 34.6372 37.4072 34.6372Z" fill="white" stroke="#D5ACE5"/>
<path d="M72.7194 46.1424C73.5999 46.1424 74.3137 45.4426 74.3137 44.5794C74.3137 43.7161 73.5999 43.0163 72.7194 43.0163C71.8388 43.0163 71.125 43.7161 71.125 44.5794C71.125 45.4426 71.8388 46.1424 72.7194 46.1424Z" fill="white" stroke="#D5ACE5"/>
<path d="M108.032 47.1439C108.912 47.1439 109.626 46.4441 109.626 45.5808C109.626 44.7176 108.912 44.0178 108.032 44.0178C107.151 44.0178 106.437 44.7176 106.437 45.5808C106.437 46.4441 107.151 47.1439 108.032 47.1439Z" fill="white" stroke="#D5ACE5"/>
<path d="M143.344 58.3948C144.225 58.3948 144.939 57.695 144.939 56.8318C144.939 55.9685 144.225 55.2687 143.344 55.2687C142.464 55.2687 141.75 55.9685 141.75 56.8318C141.75 57.695 142.464 58.3948 143.344 58.3948Z" fill="white" stroke="#D5ACE5"/>
<path d="M178.656 3.62682C179.537 3.62682 180.251 2.92703 180.251 2.06378C180.251 1.20054 179.537 0.500736 178.656 0.500736C177.776 0.500736 177.062 1.20054 177.062 2.06378C177.062 2.92703 177.776 3.62682 178.656 3.62682Z" fill="white" stroke="#D5ACE5"/>
<path d="M213.968 50.8094C214.849 50.8094 215.563 50.1096 215.563 49.2464C215.563 48.3831 214.849 47.6833 213.968 47.6833C213.088 47.6833 212.374 48.3831 212.374 49.2464C212.374 50.1096 213.088 50.8094 213.968 50.8094Z" fill="white" stroke="#D5ACE5"/>
<path d="M249.281 5.5437C250.161 5.5437 250.875 4.8439 250.875 3.98066C250.875 3.11741 250.161 2.41761 249.281 2.41761C248.4 2.41761 247.686 3.11741 247.686 3.98066C247.686 4.8439 248.4 5.5437 249.281 5.5437Z" fill="white" stroke="#D5ACE5"/>
<path d="M284.593 61.6457C285.474 61.6457 286.188 60.9459 286.188 60.0826C286.188 59.2194 285.474 58.5196 284.593 58.5196C283.713 58.5196 282.999 59.2194 282.999 60.0826C282.999 60.9459 283.713 61.6457 284.593 61.6457Z" fill="white" stroke="#D5ACE5"/>
<path d="M319.905 38.7214C320.785 38.7214 321.499 38.0216 321.499 37.1583C321.499 36.2951 320.785 35.5953 319.905 35.5953C319.024 35.5953 318.31 36.2951 318.31 37.1583C318.31 38.0216 319.024 38.7214 319.905 38.7214Z" fill="white" stroke="#D5ACE5"/>
</svg>
