<svg width="20" height="24" viewBox="0 0 20 24" fill="none" xmlns="http://www.w3.org/2000/svg">
<path d="M18.3334 12.4614V14.4954C18.3334 15.0483 17.95 15.5025 17.475 15.5025H15.8667C14.9667 15.5025 14.1417 14.7225 14.0667 13.6561C14.0167 13.0341 14.2167 12.4515 14.5667 12.0467C14.875 11.6715 15.3 11.4542 15.7667 11.4542H17.475C17.95 11.4542 18.3334 11.9084 18.3334 12.4614Z" fill="#FF0000"/>
<path d="M12.8167 13.7859C12.7417 12.7492 13.0584 11.7322 13.6917 10.9916C14.225 10.3498 14.9667 9.9746 15.7667 9.9746H16.2417C16.475 9.9746 16.6667 9.7475 16.6334 9.47103C16.4084 7.55549 15.0084 6.0744 13.3334 6.0744H4.99999C3.15832 6.0744 1.66665 7.84183 1.66665 10.024V16.9357C1.66665 19.1178 3.15832 20.8853 4.99999 20.8853H13.3334C15.0167 20.8853 16.4084 19.4042 16.6334 17.4886C16.6667 17.2122 16.475 16.9851 16.2417 16.9851H15.8667C14.2834 16.9851 12.95 15.583 12.8167 13.7859ZM10.8333 11.7519H5.83333C5.49166 11.7519 5.20832 11.4261 5.20832 11.0114C5.20832 10.5967 5.49166 10.2708 5.83333 10.2708H10.8333C11.175 10.2708 11.4583 10.6065 11.4583 11.0114C11.4583 11.4162 11.175 11.7519 10.8333 11.7519Z" fill="#FF0000"/>
<path d="M11.8417 3.93013C12.0584 4.19673 11.8667 4.59168 11.5501 4.59168H5.02504C4.11671 4.59168 3.2667 4.90765 2.55837 5.45071C2.23337 5.69756 1.7917 5.43097 1.95003 5.00639C2.4167 3.7129 3.50837 2.81438 4.76671 2.81438H9.45006C10.4167 2.81438 11.2751 3.21921 11.8417 3.93013Z" fill="#FF0000"/>
</svg>
