<svg width="52" height="37" viewBox="0 0 52 37" fill="none" xmlns="http://www.w3.org/2000/svg">
<path d="M16.2917 36.1288L0.91156 22.0468C0.327857 21.5112 0 20.7852 0 20.0283C0 19.2714 0.327857 18.5455 0.91156 18.0099L2.78012 16.2958C3.36476 15.761 4.15713 15.4606 4.98327 15.4606C5.80942 15.4606 6.60181 15.761 7.18645 16.2958L18.3666 26.532L44.6966 0.897436C45.2632 0.346686 46.0451 0.0244021 46.8708 0.00132947C47.6965 -0.0217432 48.4984 0.256282 49.1006 0.774373L51.0195 2.43353C51.6214 2.95267 51.9736 3.66953 51.9988 4.42652C52.024 5.18351 51.72 5.91869 51.1538 6.47046L20.7724 36.0651C20.4864 36.3444 20.1419 36.5681 19.7596 36.723C19.3773 36.8779 18.9648 36.9608 18.5468 36.9668C18.1288 36.9727 17.7138 36.9016 17.3264 36.7576C16.939 36.6137 16.5871 36.3998 16.2917 36.1288Z" fill="white"/>
</svg>
