<svg width="322" height="71" viewBox="0 0 322 71" fill="none" xmlns="http://www.w3.org/2000/svg">
<path d="M2.09536 33.7432L37.4076 49.2486L72.7198 2.06554L108.032 63.5036L143.344 58.3351L178.656 28.8249L213.969 12.1524L249.281 68.9222L284.593 34.9937L319.905 29.1583" stroke="#85A634"/>
<path d="M2.0951 35.3062C2.97564 35.3062 3.68946 34.6064 3.68946 33.7431C3.68946 32.8799 2.97564 32.1801 2.0951 32.1801C1.21456 32.1801 0.500736 32.8799 0.500736 33.7431C0.500736 34.6064 1.21456 35.3062 2.0951 35.3062Z" fill="white" stroke="#85A634"/>
<path d="M37.4072 50.8094C38.2878 50.8094 39.0016 50.1096 39.0016 49.2464C39.0016 48.3831 38.2878 47.6833 37.4072 47.6833C36.5267 47.6833 35.8129 48.3831 35.8129 49.2464C35.8129 50.1096 36.5267 50.8094 37.4072 50.8094Z" fill="white" stroke="#85A634"/>
<path d="M72.7194 3.62682C73.5999 3.62682 74.3137 2.92703 74.3137 2.06378C74.3137 1.20053 73.5999 0.500736 72.7194 0.500736C71.8388 0.500736 71.125 1.20053 71.125 2.06378C71.125 2.92703 71.8388 3.62682 72.7194 3.62682Z" fill="white" stroke="#85A634"/>
<path d="M108.032 65.0648C108.912 65.0648 109.626 64.365 109.626 63.5017C109.626 62.6385 108.912 61.9387 108.032 61.9387C107.151 61.9387 106.437 62.6385 106.437 63.5017C106.437 64.365 107.151 65.0648 108.032 65.0648Z" fill="white" stroke="#85A634"/>
<path d="M143.344 59.897C144.225 59.897 144.939 59.1972 144.939 58.334C144.939 57.4707 144.225 56.7709 143.344 56.7709C142.464 56.7709 141.75 57.4707 141.75 58.334C141.75 59.1972 142.464 59.897 143.344 59.897Z" fill="white" stroke="#85A634"/>
<path d="M178.656 30.3849C179.537 30.3849 180.251 29.6851 180.251 28.8218C180.251 27.9586 179.537 27.2588 178.656 27.2588C177.776 27.2588 177.062 27.9586 177.062 28.8218C177.062 29.6851 177.776 30.3849 178.656 30.3849Z" fill="white" stroke="#85A634"/>
<path d="M213.968 13.7159C214.849 13.7159 215.563 13.0161 215.563 12.1528C215.563 11.2896 214.849 10.5898 213.968 10.5898C213.088 10.5898 212.374 11.2896 212.374 12.1528C212.374 13.0161 213.088 13.7159 213.968 13.7159Z" fill="white" stroke="#85A634"/>
<path d="M249.281 70.4829C250.161 70.4829 250.875 69.7831 250.875 68.9198C250.875 68.0566 250.161 67.3568 249.281 67.3568C248.4 67.3568 247.686 68.0566 247.686 68.9198C247.686 69.7831 248.4 70.4829 249.281 70.4829Z" fill="white" stroke="#85A634"/>
<path d="M284.593 36.5541C285.474 36.5541 286.188 35.8543 286.188 34.9911C286.188 34.1278 285.474 33.428 284.593 33.428C283.713 33.428 282.999 34.1278 282.999 34.9911C282.999 35.8543 283.713 36.5541 284.593 36.5541Z" fill="white" stroke="#85A634"/>
<path d="M319.905 30.7213C320.785 30.7213 321.499 30.0215 321.499 29.1583C321.499 28.295 320.785 27.5952 319.905 27.5952C319.024 27.5952 318.31 28.295 318.31 29.1583C318.31 30.0215 319.024 30.7213 319.905 30.7213Z" fill="white" stroke="#85A634"/>
</svg>
