<svg width="322" height="67" viewBox="0 0 322 67" fill="none" xmlns="http://www.w3.org/2000/svg">
<path d="M2.09536 38.7411L37.4076 28.9043L72.7198 52.1624L108.032 64.5834L143.344 29.7379L178.656 16.65L213.969 20.9849L249.281 50.2451L284.593 47.244L319.905 2.06162" stroke="#1BC50E"/>
<path d="M2.0951 40.3057C2.97564 40.3057 3.68946 39.6059 3.68946 38.7427C3.68946 37.8794 2.97564 37.1796 2.0951 37.1796C1.21456 37.1796 0.500736 37.8794 0.500736 38.7427C0.500736 39.6059 1.21456 40.3057 2.0951 40.3057Z" fill="white" stroke="#1BC50E"/>
<path d="M37.4072 30.471C38.2878 30.471 39.0016 29.7712 39.0016 28.9079C39.0016 28.0447 38.2878 27.3449 37.4072 27.3449C36.5267 27.3449 35.8129 28.0447 35.8129 28.9079C35.8129 29.7712 36.5267 30.471 37.4072 30.471Z" fill="white" stroke="#1BC50E"/>
<path d="M72.7194 53.7278C73.5999 53.7278 74.3137 53.028 74.3137 52.1647C74.3137 51.3015 73.5999 50.6017 72.7194 50.6017C71.8388 50.6017 71.125 51.3015 71.125 52.1647C71.125 53.028 71.8388 53.7278 72.7194 53.7278Z" fill="white" stroke="#1BC50E"/>
<path d="M108.032 66.1484C108.912 66.1484 109.626 65.4486 109.626 64.5853C109.626 63.7221 108.912 63.0223 108.032 63.0223C107.151 63.0223 106.437 63.7221 106.437 64.5853C106.437 65.4486 107.151 66.1484 108.032 66.1484Z" fill="white" stroke="#1BC50E"/>
<path d="M143.344 31.3042C144.225 31.3042 144.939 30.6044 144.939 29.7412C144.939 28.8779 144.225 28.1781 143.344 28.1781C142.464 28.1781 141.75 28.8779 141.75 29.7412C141.75 30.6044 142.464 31.3042 143.344 31.3042Z" fill="white" stroke="#1BC50E"/>
<path d="M178.656 18.2147C179.537 18.2147 180.251 17.5149 180.251 16.6516C180.251 15.7884 179.537 15.0886 178.656 15.0886C177.776 15.0886 177.062 15.7884 177.062 16.6516C177.062 17.5149 177.776 18.2147 178.656 18.2147Z" fill="white" stroke="#1BC50E"/>
<path d="M213.968 22.5492C214.849 22.5492 215.563 21.8494 215.563 20.9861C215.563 20.1229 214.849 19.4231 213.968 19.4231C213.088 19.4231 212.374 20.1229 212.374 20.9861C212.374 21.8494 213.088 22.5492 213.968 22.5492Z" fill="white" stroke="#1BC50E"/>
<path d="M249.281 51.8109C250.161 51.8109 250.875 51.1111 250.875 50.2479C250.875 49.3846 250.161 48.6848 249.281 48.6848C248.4 48.6848 247.686 49.3846 247.686 50.2479C247.686 51.1111 248.4 51.8109 249.281 51.8109Z" fill="white" stroke="#1BC50E"/>
<path d="M284.593 48.8104C285.474 48.8104 286.188 48.1106 286.188 47.2474C286.188 46.3841 285.474 45.6843 284.593 45.6843C283.713 45.6843 282.999 46.3841 282.999 47.2474C282.999 48.1106 283.713 48.8104 284.593 48.8104Z" fill="white" stroke="#1BC50E"/>
<path d="M319.905 3.62682C320.785 3.62682 321.499 2.92703 321.499 2.06378C321.499 1.20053 320.785 0.500736 319.905 0.500736C319.024 0.500736 318.31 1.20053 318.31 2.06378C318.31 2.92703 319.024 3.62682 319.905 3.62682Z" fill="white" stroke="#1BC50E"/>
</svg>
