<svg width="38" height="215" viewBox="0 0 38 215" fill="none" xmlns="http://www.w3.org/2000/svg">
<g filter="url(#filter0_d_353_4578)">
<path d="M28.2555 4.68575H9.4185C8.16954 4.68575 6.97172 5.17927 6.08857 6.05775C5.20541 6.93622 4.70926 8.12769 4.70926 9.37004V28.1072C4.70926 29.3496 5.20541 30.541 6.08857 31.4195C6.97172 32.298 8.16954 32.7915 9.4185 32.7915H28.2555C29.5045 32.7915 30.7023 32.298 31.5854 31.4195C32.4686 30.541 32.9647 29.3496 32.9647 28.1072V9.37004C32.9647 8.12769 32.4686 6.93622 31.5854 6.05775C30.7023 5.17927 29.5045 4.68575 28.2555 4.68575ZM29.8252 28.1072C29.8252 28.5213 29.6599 28.9185 29.3655 29.2113C29.0711 29.5041 28.6718 29.6686 28.2555 29.6686H9.4185C9.00218 29.6686 8.60291 29.5041 8.30853 29.2113C8.01414 28.9185 7.84876 28.5213 7.84876 28.1072V9.37004C7.84876 8.95593 8.01414 8.55877 8.30853 8.26595C8.60291 7.97312 9.00218 7.80861 9.4185 7.80861H28.2555C28.6718 7.80861 29.0711 7.97312 29.3655 8.26595C29.6599 8.55877 29.8252 8.95593 29.8252 9.37004V28.1072Z" fill="#231F20"/>
<path d="M28.2555 123.036H9.4185C8.16954 123.036 6.97172 123.53 6.08857 124.408C5.20541 125.287 4.70926 126.478 4.70926 127.721V146.458C4.70926 147.7 5.20541 148.892 6.08857 149.77C6.97172 150.648 8.16954 151.142 9.4185 151.142H28.2555C29.5045 151.142 30.7023 150.648 31.5854 149.77C32.4686 148.892 32.9647 147.7 32.9647 146.458V127.721C32.9647 126.478 32.4686 125.287 31.5854 124.408C30.7023 123.53 29.5045 123.036 28.2555 123.036ZM29.8252 146.458C29.8252 146.872 29.6599 147.269 29.3655 147.562C29.0711 147.855 28.6718 148.019 28.2555 148.019H9.4185C9.00218 148.019 8.60291 147.855 8.30853 147.562C8.01414 147.269 7.84876 146.872 7.84876 146.458V127.721C7.84876 127.306 8.01414 126.909 8.30853 126.616C8.60291 126.324 9.00218 126.159 9.4185 126.159H28.2555C28.6718 126.159 29.0711 126.324 29.3655 126.616C29.6599 126.909 29.8252 127.306 29.8252 127.721V146.458Z" fill="#231F20"/>
<path d="M28.2555 182.211H9.4185C8.16954 182.211 6.97172 182.705 6.08857 183.583C5.20541 184.462 4.70926 185.653 4.70926 186.896V205.633C4.70926 206.875 5.20541 208.067 6.08857 208.945C6.97172 209.824 8.16954 210.317 9.4185 210.317H28.2555C29.5045 210.317 30.7023 209.824 31.5854 208.945C32.4686 208.067 32.9647 206.875 32.9647 205.633V186.896C32.9647 185.653 32.4686 184.462 31.5854 183.583C30.7023 182.705 29.5045 182.211 28.2555 182.211ZM29.8252 205.633C29.8252 206.047 29.6599 206.444 29.3655 206.737C29.0711 207.03 28.6718 207.194 28.2555 207.194H9.4185C9.00218 207.194 8.60291 207.03 8.30853 206.737C8.01414 206.444 7.84876 206.047 7.84876 205.633V186.896C7.84876 186.482 8.01414 186.085 8.30853 185.792C8.60291 185.499 9.00218 185.334 9.4185 185.334H28.2555C28.6718 185.334 29.0711 185.499 29.3655 185.792C29.6599 186.085 29.8252 186.482 29.8252 186.896V205.633Z" fill="#231F20"/>
</g>
<defs>
<filter id="filter0_d_353_4578" x="0.697378" y="4.68575" width="36.2793" height="213.656" filterUnits="userSpaceOnUse" color-interpolation-filters="sRGB">
<feFlood flood-opacity="0" result="BackgroundImageFix"/>
<feColorMatrix in="SourceAlpha" type="matrix" values="0 0 0 0 0 0 0 0 0 0 0 0 0 0 0 0 0 0 127 0" result="hardAlpha"/>
<feOffset dy="4"/>
<feGaussianBlur stdDeviation="2"/>
<feComposite in2="hardAlpha" operator="out"/>
<feColorMatrix type="matrix" values="0 0 0 0 0 0 0 0 0 0 0 0 0 0 0 0 0 0 0.25 0"/>
<feBlend mode="normal" in2="BackgroundImageFix" result="effect1_dropShadow_353_4578"/>
<feBlend mode="normal" in="SourceGraphic" in2="effect1_dropShadow_353_4578" result="shape"/>
</filter>
</defs>
</svg>
