<svg width="65" height="13" viewBox="0 0 65 13" fill="none" xmlns="http://www.w3.org/2000/svg">
<g filter="url(#filter0_d_353_4028)">
<path d="M61.1145 12.9318C60.6715 12.9034 60.2427 12.8153 59.8281 12.6677C59.4192 12.5143 59.0557 12.307 58.7376 12.0458C58.4196 11.7845 58.1754 11.4722 58.005 11.1087L59.7599 10.359C59.8281 10.4726 59.9388 10.5947 60.0922 10.7253C60.2455 10.8503 60.4272 10.9554 60.6374 11.0405C60.8532 11.1257 61.0889 11.1683 61.3445 11.1683C61.5603 11.1683 61.7647 11.1399 61.9578 11.0831C62.1566 11.0207 62.3156 10.927 62.4349 10.802C62.5598 10.6771 62.6223 10.5152 62.6223 10.3164C62.6223 10.1063 62.5485 9.94444 62.4008 9.83085C62.2588 9.71158 62.0771 9.62355 61.8556 9.56676C61.6398 9.50429 61.4296 9.4475 61.2252 9.39638C60.6857 9.28847 60.183 9.12093 59.7173 8.89376C59.2573 8.66659 58.8853 8.3741 58.6013 8.01631C58.3231 7.65283 58.1839 7.21552 58.1839 6.70438C58.1839 6.14213 58.3316 5.65655 58.6269 5.24763C58.9279 4.83872 59.3169 4.52352 59.794 4.30203C60.2767 4.08053 60.7964 3.96979 61.353 3.96979C62.0288 3.96979 62.6479 4.11177 63.2101 4.39574C63.778 4.67402 64.2267 5.06874 64.5561 5.57988L62.912 6.55104C62.8324 6.41474 62.7217 6.28979 62.5797 6.1762C62.4377 6.05694 62.2759 5.96039 62.0941 5.88656C61.9124 5.80705 61.7221 5.76161 61.5234 5.75025C61.2678 5.7389 61.0349 5.76161 60.8248 5.81841C60.6147 5.8752 60.4443 5.97175 60.3137 6.10805C60.1887 6.24436 60.1262 6.42609 60.1262 6.65327C60.1262 6.86908 60.2114 7.03094 60.3818 7.13885C60.5522 7.24108 60.7566 7.32059 60.9952 7.37738C61.2394 7.43417 61.4722 7.49665 61.6937 7.5648C62.1935 7.7295 62.6621 7.93112 63.0994 8.16965C63.5424 8.40818 63.8973 8.70066 64.1642 9.0471C64.4312 9.39354 64.559 9.80813 64.5476 10.2909C64.5476 10.8418 64.3829 11.3245 64.0535 11.7391C63.7241 12.148 63.2981 12.4604 62.7756 12.6762C62.2588 12.892 61.7051 12.9772 61.1145 12.9318Z" fill="black"/>
<path d="M57.1942 6.33916H55.5415V12.7795H53.4629V6.33916H52.202V4.26053H53.4629V1.58557H55.5415V4.26053H57.1942V6.33916Z" fill="black"/>
<path d="M49.2244 10.214L51.0986 11.2277C50.7067 11.7616 50.2155 12.1904 49.6248 12.5141C49.0342 12.8378 48.3896 12.9997 47.691 12.9997C46.9073 12.9997 46.1917 12.7981 45.5442 12.3948C44.9025 11.9916 44.3885 11.4521 44.0023 10.7762C43.6218 10.0947 43.4315 9.34221 43.4315 8.51871C43.4315 7.89398 43.5423 7.31185 43.7638 6.77231C43.9853 6.2271 44.2891 5.75003 44.6753 5.34112C45.0672 4.92653 45.5215 4.60281 46.0383 4.36996C46.5552 4.13711 47.106 4.02068 47.691 4.02068C48.3896 4.02068 49.0342 4.18254 49.6248 4.50626C50.2155 4.82998 50.7067 5.26445 51.0986 5.80967L49.2244 6.81491C49.0257 6.58773 48.79 6.41168 48.5174 6.28673C48.2504 6.16179 47.975 6.09931 47.691 6.09931C47.2821 6.09931 46.9129 6.2129 46.5835 6.44007C46.2541 6.66157 45.9929 6.95689 45.7998 7.32605C45.6067 7.68952 45.5102 8.08708 45.5102 8.51871C45.5102 8.94465 45.6067 9.34221 45.7998 9.71136C45.9929 10.0748 46.2541 10.3673 46.5835 10.5888C46.9129 10.8103 47.2821 10.9211 47.691 10.9211C47.9863 10.9211 48.2675 10.8586 48.5344 10.7336C48.8013 10.603 49.0313 10.4298 49.2244 10.214Z" fill="black"/>
<path d="M34.5672 9.62646V4.25949H36.6458V9.08124C36.6458 9.41632 36.7281 9.723 36.8928 10.0013C37.0575 10.2739 37.2762 10.4926 37.5488 10.6573C37.8271 10.8163 38.1309 10.8958 38.4603 10.8958C38.8011 10.8958 39.1078 10.8163 39.3804 10.6573C39.653 10.4926 39.8716 10.2739 40.0363 10.0013C40.201 9.723 40.2834 9.41632 40.2834 9.08124V4.25949H42.362L42.3706 12.7785H40.2919L40.2834 12.0033C39.9881 12.3099 39.6388 12.5541 39.2356 12.7359C38.8323 12.9119 38.4007 13 37.9407 13C37.3216 13 36.7565 12.8495 36.2454 12.5485C35.7343 12.2418 35.3253 11.8357 35.0187 11.3303C34.7177 10.8191 34.5672 10.2512 34.5672 9.62646Z" fill="black"/>
<path d="M30.7827 0H32.8613V12.7785H30.7827V11.7136C30.5101 12.0941 30.1665 12.4036 29.7519 12.6422C29.3373 12.8807 28.8574 13 28.3122 13C27.6931 13 27.1138 12.8836 26.5743 12.6507C26.0348 12.4178 25.5577 12.097 25.1431 11.6881C24.7342 11.2735 24.4133 10.7964 24.1805 10.2569C23.9476 9.71733 23.8312 9.13803 23.8312 8.51899C23.8312 7.89994 23.9476 7.32065 24.1805 6.78112C24.4133 6.24158 24.7342 5.76736 25.1431 5.35844C25.5577 4.94385 26.0348 4.62013 26.5743 4.38728C27.1138 4.15443 27.6931 4.038 28.3122 4.038C28.8574 4.038 29.3373 4.15727 29.7519 4.3958C30.1665 4.62865 30.5101 4.93817 30.7827 5.32437V0ZM28.3377 10.998C28.7807 10.998 29.1726 10.8873 29.5134 10.6658C29.8541 10.4443 30.121 10.1461 30.3141 9.77128C30.5072 9.39077 30.6038 8.97333 30.6038 8.51899C30.6038 8.05896 30.5072 7.64153 30.3141 7.2667C30.121 6.88618 29.8513 6.58518 29.5048 6.36368C29.1641 6.14219 28.775 6.03144 28.3377 6.03144C27.9004 6.03144 27.5 6.14503 27.1366 6.3722C26.7788 6.5937 26.492 6.89186 26.2761 7.2667C26.066 7.64153 25.9609 8.05896 25.9609 8.51899C25.9609 8.97901 26.0688 9.39645 26.2847 9.77128C26.5005 10.1461 26.7873 10.4443 27.1451 10.6658C27.5086 10.8873 27.9061 10.998 28.3377 10.998Z" fill="black"/>
<path d="M18.7231 12.9997C17.9394 12.9997 17.2238 12.7981 16.5763 12.3948C15.9346 11.9916 15.4206 11.4521 15.0344 10.7762C14.6539 10.0947 14.4636 9.34221 14.4636 8.51871C14.4636 7.89398 14.5744 7.31185 14.7959 6.77231C15.0174 6.2271 15.3212 5.75003 15.7074 5.34112C16.0993 4.92653 16.5536 4.60281 17.0704 4.36996C17.5873 4.13711 18.1382 4.02068 18.7231 4.02068C19.5069 4.02068 20.2196 4.2223 20.8614 4.62553C21.5088 5.02876 22.0228 5.57114 22.4033 6.25265C22.7895 6.93417 22.9826 7.68952 22.9826 8.51871C22.9826 9.13775 22.8719 9.71704 22.6504 10.2566C22.4289 10.7961 22.1222 11.2732 21.7303 11.6878C21.3441 12.0967 20.8926 12.4176 20.3758 12.6504C19.8647 12.8833 19.3138 12.9997 18.7231 12.9997ZM18.7231 10.9211C19.1377 10.9211 19.5097 10.8103 19.8391 10.5888C20.1685 10.3673 20.4269 10.0748 20.6143 9.71136C20.8074 9.34789 20.904 8.95033 20.904 8.51871C20.904 8.07572 20.8046 7.67249 20.6058 7.30901C20.4127 6.93985 20.1486 6.64737 19.8136 6.43155C19.4842 6.21006 19.1207 6.09931 18.7231 6.09931C18.3142 6.09931 17.9451 6.21006 17.6157 6.43155C17.2863 6.65305 17.025 6.94837 16.8319 7.31753C16.6388 7.68668 16.5423 8.08708 16.5423 8.51871C16.5423 8.96737 16.6417 9.37344 16.8404 9.73692C17.0392 10.1004 17.3033 10.39 17.6327 10.6059C17.9678 10.816 18.3313 10.9211 18.7231 10.9211Z" fill="black"/>
<path d="M9.05994 12.7782L9.05142 4.25921H11.1301L11.1386 5.0174C11.4282 4.71072 11.7747 4.46935 12.1779 4.29329C12.5811 4.11155 13.0156 4.02068 13.4813 4.02068C13.7937 4.02068 14.106 4.06611 14.4184 4.15698L13.6006 6.25265C13.3847 6.16746 13.1689 6.12487 12.9531 6.12487C12.618 6.12487 12.3114 6.20722 12.0331 6.37192C11.7605 6.53094 11.5418 6.7496 11.3771 7.02788C11.2181 7.30049 11.1386 7.60433 11.1386 7.93941V12.7782H9.05994Z" fill="black"/>
<path d="M0 12.78V0.853465H4.25949C4.90694 0.853465 5.49191 1.01533 6.01441 1.33905C6.54258 1.66277 6.96001 2.09724 7.2667 2.64245C7.57338 3.18767 7.72672 3.78684 7.72672 4.43996C7.72672 5.11012 7.5677 5.71781 7.24966 6.26302C6.9373 6.80256 6.51703 7.23419 5.98885 7.55791C5.46067 7.87595 4.88422 8.03497 4.25949 8.03497H2.07863V12.78H0ZM2.07863 5.95634H4.038C4.33333 5.95634 4.60309 5.88251 4.8473 5.73485C5.09152 5.58718 5.28461 5.38841 5.4266 5.13852C5.57426 4.88863 5.64809 4.61034 5.64809 4.30365C5.64809 3.99129 5.57426 3.71017 5.4266 3.46027C5.28461 3.21039 5.09152 3.01161 4.8473 2.86395C4.60309 2.71628 4.33333 2.64245 4.038 2.64245H2.07863V5.95634Z" fill="black"/>
</g>
<defs>
<filter id="filter0_d_353_4028" x="-4.00894" y="0" width="72.574" height="21.0195" filterUnits="userSpaceOnUse" color-interpolation-filters="sRGB">
<feFlood flood-opacity="0" result="BackgroundImageFix"/>
<feColorMatrix in="SourceAlpha" type="matrix" values="0 0 0 0 0 0 0 0 0 0 0 0 0 0 0 0 0 0 127 0" result="hardAlpha"/>
<feOffset dy="4"/>
<feGaussianBlur stdDeviation="2"/>
<feComposite in2="hardAlpha" operator="out"/>
<feColorMatrix type="matrix" values="0 0 0 0 0 0 0 0 0 0 0 0 0 0 0 0 0 0 0.25 0"/>
<feBlend mode="normal" in2="BackgroundImageFix" result="effect1_dropShadow_353_4028"/>
<feBlend mode="normal" in="SourceGraphic" in2="effect1_dropShadow_353_4028" result="shape"/>
</filter>
</defs>
</svg>
