<svg width="148" height="23" viewBox="0 0 148 23" fill="none" xmlns="http://www.w3.org/2000/svg">
<g filter="url(#filter0_d_353_6540)">
<path d="M131.915 14.7037L128.634 4.78069L130.295 4.20051L132.975 12.6631L135.416 5.04077H137.357L139.737 12.6631L142.398 4.20051L143.999 4.78069L140.698 14.7037H138.717L136.316 6.96136L133.896 14.7037H131.915Z" fill="black"/>
</g>
<g filter="url(#filter1_d_353_6540)">
<path d="M123.013 14.9432C121.52 14.9432 120.333 14.4697 119.452 13.5228C118.585 12.5625 118.152 11.222 118.152 9.50152C118.152 8.4612 118.345 7.53424 118.732 6.72066C119.132 5.89374 119.686 5.24687 120.393 4.78006C121.1 4.29992 121.92 4.05984 122.853 4.05984C123.854 4.05984 124.681 4.27991 125.334 4.72005C126.001 5.14684 126.501 5.72702 126.835 6.46058C127.168 7.19414 127.335 8.00106 127.335 8.88133C127.335 9.34814 127.315 9.80161 127.275 10.2417H119.993C120.113 11.2154 120.453 11.9756 121.013 12.5224C121.573 13.0693 122.313 13.3427 123.234 13.3427C123.834 13.3427 124.374 13.2827 124.854 13.1626C125.334 13.0293 125.794 12.8626 126.234 12.6625L126.655 14.203C126.174 14.4164 125.634 14.5897 125.034 14.7231C124.434 14.8698 123.76 14.9432 123.013 14.9432ZM119.973 8.7813H125.674C125.674 7.76765 125.421 6.98741 124.914 6.44058C124.407 5.89374 123.707 5.62032 122.813 5.62032C122.04 5.62032 121.4 5.89374 120.893 6.44058C120.386 6.97407 120.079 7.75431 119.973 8.7813Z" fill="black"/>
</g>
<g filter="url(#filter2_d_353_6540)">
<path d="M113.851 14.7045V4.30132H115.651V14.7045H113.851ZM114.751 2.52078C114.404 2.52078 114.104 2.39407 113.851 2.14066C113.611 1.88725 113.49 1.59382 113.49 1.26039C113.49 0.873602 113.604 0.566841 113.831 0.340104C114.057 0.113368 114.364 0 114.751 0C115.098 0 115.391 0.126705 115.631 0.380117C115.885 0.620191 116.011 0.913614 116.011 1.26039C116.011 1.63384 115.898 1.9406 115.671 2.18067C115.444 2.40741 115.138 2.52078 114.751 2.52078Z" fill="black"/>
</g>
<g filter="url(#filter3_d_353_6540)">
<path d="M105.964 14.7061L101.783 4.78303L103.423 4.10282L106.964 12.6655L110.506 4.10282L112.046 4.78303L107.845 14.7061H105.964Z" fill="black"/>
</g>
<g filter="url(#filter4_d_353_6540)">
<path d="M96.4623 14.9432C94.9685 14.9432 93.7815 14.4697 92.9012 13.5228C92.0343 12.5625 91.6008 11.222 91.6008 9.50152C91.6008 8.4612 91.7942 7.53424 92.181 6.72066C92.5811 5.89374 93.1346 5.24687 93.8415 4.78006C94.5484 4.29992 95.3686 4.05984 96.3023 4.05984C97.3026 4.05984 98.1295 4.27991 98.783 4.72005C99.4499 5.14684 99.95 5.72702 100.283 6.46058C100.617 7.19414 100.784 8.00106 100.784 8.88133C100.784 9.34814 100.764 9.80161 100.724 10.2417H93.4414C93.5614 11.2154 93.9015 11.9756 94.4617 12.5224C95.0219 13.0693 95.7621 13.3427 96.6824 13.3427C97.2826 13.3427 97.8227 13.2827 98.3029 13.1626C98.783 13.0293 99.2432 12.8626 99.6833 12.6625L100.103 14.203C99.6233 14.4164 99.0831 14.5897 98.4829 14.7231C97.8827 14.8698 97.2092 14.9432 96.4623 14.9432ZM93.4214 8.7813H99.1231C99.1231 7.76765 98.8697 6.98741 98.3629 6.44058C97.8561 5.89374 97.1559 5.62032 96.2622 5.62032C95.4887 5.62032 94.8485 5.89374 94.3417 6.44058C93.8348 6.97407 93.5281 7.75431 93.4214 8.7813Z" fill="black"/>
</g>
<g filter="url(#filter5_d_353_6540)">
<path d="M88.3161 14.9437L86.5755 11.1425C86.1354 10.1955 85.5819 9.52199 84.915 9.12187C84.2482 8.72175 83.3946 8.52168 82.3542 8.52168H82.0541V14.7036H80.1536V0.73929C80.8604 0.672603 81.534 0.625921 82.1742 0.599246C82.8277 0.559234 83.5213 0.539228 84.2548 0.539228C85.962 0.539228 87.2424 0.886001 88.096 1.57955C88.9629 2.27309 89.3964 3.1667 89.3964 4.26037C89.3964 5.23401 89.103 6.02091 88.5161 6.6211C87.9426 7.20795 87.109 7.64808 86.0154 7.94151C86.3755 8.10155 86.6956 8.29495 86.9757 8.52168C87.2557 8.73508 87.5225 9.02851 87.7759 9.40195C88.0427 9.76207 88.3094 10.2355 88.5762 10.8224L90.0966 14.1034L88.3161 14.9437ZM82.0541 6.92119H84.2548C85.2151 6.92119 85.9954 6.70779 86.5955 6.28099C87.1957 5.8542 87.4958 5.24067 87.4958 4.44043C87.4958 3.77356 87.2157 3.22672 86.6556 2.79992C86.0954 2.35979 85.2951 2.13972 84.2548 2.13972C83.8014 2.13972 83.3946 2.14639 83.0344 2.15973C82.6743 2.17306 82.3476 2.19307 82.0541 2.21974V6.92119Z" fill="black"/>
</g>
<g filter="url(#filter6_d_353_6540)">
<path d="M65.5892 14.9432C64.7223 14.9432 63.9354 14.7231 63.2285 14.283C62.5216 13.8429 61.9548 13.2227 61.528 12.4224C61.1145 11.6088 60.9078 10.6552 60.9078 9.56154C60.9078 8.52122 61.1145 7.58759 61.528 6.76067C61.9548 5.93375 62.5349 5.28022 63.2685 4.80007C64.0154 4.30659 64.869 4.05984 65.8293 4.05984C66.4295 4.05984 66.9696 4.16654 67.4498 4.37994C67.9433 4.58 68.3701 4.83341 68.7302 5.14018V4.29992H70.3707V12.1823C70.3707 12.6892 70.4907 13.0226 70.7308 13.1826C70.9842 13.3294 71.2576 13.4027 71.5511 13.4027L71.1709 14.8031C69.8905 14.8031 69.117 14.283 68.8502 13.2427C68.5435 13.6695 68.1233 14.0629 67.5898 14.423C67.0697 14.7698 66.4028 14.9432 65.5892 14.9432ZM65.9893 13.3427C66.4962 13.3427 66.9763 13.2227 67.4298 12.9826C67.8833 12.7292 68.2634 12.4157 68.5701 12.0423V6.46058C68.21 6.20717 67.8099 6.00711 67.3698 5.8604C66.943 5.70035 66.4895 5.62032 66.0093 5.62032C65.3691 5.62032 64.8023 5.78704 64.3088 6.12048C63.8287 6.44058 63.4486 6.89405 63.1685 7.4809C62.8884 8.05441 62.7483 8.72794 62.7483 9.50152C62.7483 10.2484 62.8884 10.9153 63.1685 11.5021C63.4486 12.0756 63.8353 12.5291 64.3288 12.8626C64.8223 13.1826 65.3758 13.3427 65.9893 13.3427Z" fill="black"/>
</g>
<g filter="url(#filter7_d_353_6540)">
<path d="M48.8891 14.9432C47.3953 14.9432 46.2083 14.4697 45.328 13.5228C44.461 12.5625 44.0276 11.222 44.0276 9.50152C44.0276 8.4612 44.221 7.53424 44.6078 6.72066C45.0079 5.89374 45.5614 5.24687 46.2683 4.78006C46.9752 4.29992 47.7954 4.05984 48.729 4.05984C49.7293 4.05984 50.5563 4.27991 51.2098 4.72005C51.8767 5.14684 52.3768 5.72702 52.7103 6.46058C53.0437 7.19414 53.2104 8.00106 53.2104 8.88133C53.2104 9.34814 53.1904 9.80161 53.1504 10.2417H45.8681C45.9882 11.2154 46.3283 11.9756 46.8885 12.5224C47.4486 13.0693 48.1889 13.3427 49.1091 13.3427C49.7093 13.3427 50.2495 13.2827 50.7296 13.1626C51.2098 13.0293 51.6699 12.8626 52.1101 12.6625L52.5302 14.203C52.0501 14.4164 51.5099 14.5897 50.9097 14.7231C50.3095 14.8698 49.636 14.9432 48.8891 14.9432ZM45.8481 8.7813H51.5499C51.5499 7.76765 51.2965 6.98741 50.7897 6.44058C50.2828 5.89374 49.5826 5.62032 48.689 5.62032C47.9154 5.62032 47.2752 5.89374 46.7684 6.44058C46.2616 6.97407 45.9548 7.75431 45.8481 8.7813Z" fill="black"/>
</g>
<g filter="url(#filter8_d_353_6540)">
<path d="M40.808 14.943C39.8077 14.943 39.0142 14.6163 38.4273 13.9627C37.8538 13.2959 37.567 12.3489 37.567 11.1219V6.24036H35.7665V4.67988H37.6071L37.9872 1.39887H39.3676V4.67988H42.2485V6.24036H39.3676V11.2619C39.3676 12.0355 39.5277 12.5756 39.8478 12.8824C40.1812 13.1892 40.5746 13.3425 41.0281 13.3425C41.3615 13.3425 41.675 13.2892 41.9684 13.1825C42.2752 13.0758 42.5553 12.9491 42.8087 12.8024L43.3088 14.2428C43.0421 14.4029 42.682 14.5562 42.2285 14.703C41.775 14.863 41.3015 14.943 40.808 14.943Z" fill="black"/>
</g>
<g filter="url(#filter9_d_353_6540)">
<path d="M32.1653 14.7045V4.30132H33.9659V14.7045H32.1653ZM33.0656 2.52078C32.7188 2.52078 32.4187 2.39407 32.1653 2.14066C31.9252 1.88725 31.8052 1.59382 31.8052 1.26039C31.8052 0.873602 31.9186 0.566841 32.1453 0.340104C32.372 0.113368 32.6788 0 33.0656 0C33.4124 0 33.7058 0.126705 33.9459 0.380117C34.1993 0.620191 34.326 0.913614 34.326 1.26039C34.326 1.63384 34.2126 1.9406 33.9859 2.18067C33.7591 2.40741 33.4524 2.52078 33.0656 2.52078Z" fill="black"/>
</g>
<g filter="url(#filter10_d_353_6540)">
<path d="M24.1747 14.7031V4.29992H25.9152V6.56061C26.0886 6.12048 26.322 5.71368 26.6154 5.34024C26.9089 4.95345 27.2756 4.64669 27.7158 4.41995C28.1559 4.17988 28.6694 4.05984 29.2562 4.05984C29.4563 4.05984 29.6564 4.07318 29.8564 4.09986C30.0565 4.11319 30.2232 4.13987 30.3566 4.17988L29.8164 6.04045C29.563 5.93375 29.2629 5.8804 28.9161 5.8804C28.4226 5.8804 27.9492 6.02045 27.4957 6.30053C27.0556 6.58062 26.6888 7.01409 26.3954 7.60093C26.1153 8.18778 25.9752 8.93468 25.9752 9.84162V14.7031H24.1747Z" fill="black"/>
</g>
<g filter="url(#filter11_d_353_6540)">
<path d="M7.8024 14.7031L4.00123 1.15895L5.88181 0.558766L9.04278 12.6825L12.0237 2.15926H14.4044L17.3653 12.6825L20.5063 0.618784L22.2669 1.15895L18.4857 14.7031H16.125L13.1641 4.17988L10.1631 14.7031H7.8024Z" fill="black"/>
</g>
<defs>
<filter id="filter0_d_353_6540" x="124.633" y="4.20051" width="23.3672" height="18.5057" filterUnits="userSpaceOnUse" color-interpolation-filters="sRGB">
<feFlood flood-opacity="0" result="BackgroundImageFix"/>
<feColorMatrix in="SourceAlpha" type="matrix" values="0 0 0 0 0 0 0 0 0 0 0 0 0 0 0 0 0 0 127 0" result="hardAlpha"/>
<feOffset dy="4"/>
<feGaussianBlur stdDeviation="2"/>
<feComposite in2="hardAlpha" operator="out"/>
<feColorMatrix type="matrix" values="0 0 0 0 0 0 0 0 0 0 0 0 0 0 0 0 0 0 0.25 0"/>
<feBlend mode="normal" in2="BackgroundImageFix" result="effect1_dropShadow_353_6540"/>
<feBlend mode="normal" in="SourceGraphic" in2="effect1_dropShadow_353_6540" result="shape"/>
</filter>
<filter id="filter1_d_353_6540" x="114.151" y="4.05984" width="17.1853" height="18.8847" filterUnits="userSpaceOnUse" color-interpolation-filters="sRGB">
<feFlood flood-opacity="0" result="BackgroundImageFix"/>
<feColorMatrix in="SourceAlpha" type="matrix" values="0 0 0 0 0 0 0 0 0 0 0 0 0 0 0 0 0 0 127 0" result="hardAlpha"/>
<feOffset dy="4"/>
<feGaussianBlur stdDeviation="2"/>
<feComposite in2="hardAlpha" operator="out"/>
<feColorMatrix type="matrix" values="0 0 0 0 0 0 0 0 0 0 0 0 0 0 0 0 0 0 0.25 0"/>
<feBlend mode="normal" in2="BackgroundImageFix" result="effect1_dropShadow_353_6540"/>
<feBlend mode="normal" in="SourceGraphic" in2="effect1_dropShadow_353_6540" result="shape"/>
</filter>
<filter id="filter2_d_353_6540" x="109.489" y="0" width="10.5233" height="22.7062" filterUnits="userSpaceOnUse" color-interpolation-filters="sRGB">
<feFlood flood-opacity="0" result="BackgroundImageFix"/>
<feColorMatrix in="SourceAlpha" type="matrix" values="0 0 0 0 0 0 0 0 0 0 0 0 0 0 0 0 0 0 127 0" result="hardAlpha"/>
<feOffset dy="4"/>
<feGaussianBlur stdDeviation="2"/>
<feComposite in2="hardAlpha" operator="out"/>
<feColorMatrix type="matrix" values="0 0 0 0 0 0 0 0 0 0 0 0 0 0 0 0 0 0 0.25 0"/>
<feBlend mode="normal" in2="BackgroundImageFix" result="effect1_dropShadow_353_6540"/>
<feBlend mode="normal" in="SourceGraphic" in2="effect1_dropShadow_353_6540" result="shape"/>
</filter>
<filter id="filter3_d_353_6540" x="97.7817" y="4.10282" width="18.2656" height="18.6073" filterUnits="userSpaceOnUse" color-interpolation-filters="sRGB">
<feFlood flood-opacity="0" result="BackgroundImageFix"/>
<feColorMatrix in="SourceAlpha" type="matrix" values="0 0 0 0 0 0 0 0 0 0 0 0 0 0 0 0 0 0 127 0" result="hardAlpha"/>
<feOffset dy="4"/>
<feGaussianBlur stdDeviation="2"/>
<feComposite in2="hardAlpha" operator="out"/>
<feColorMatrix type="matrix" values="0 0 0 0 0 0 0 0 0 0 0 0 0 0 0 0 0 0 0.25 0"/>
<feBlend mode="normal" in2="BackgroundImageFix" result="effect1_dropShadow_353_6540"/>
<feBlend mode="normal" in="SourceGraphic" in2="effect1_dropShadow_353_6540" result="shape"/>
</filter>
<filter id="filter4_d_353_6540" x="87.5996" y="4.05984" width="17.1853" height="18.8847" filterUnits="userSpaceOnUse" color-interpolation-filters="sRGB">
<feFlood flood-opacity="0" result="BackgroundImageFix"/>
<feColorMatrix in="SourceAlpha" type="matrix" values="0 0 0 0 0 0 0 0 0 0 0 0 0 0 0 0 0 0 127 0" result="hardAlpha"/>
<feOffset dy="4"/>
<feGaussianBlur stdDeviation="2"/>
<feComposite in2="hardAlpha" operator="out"/>
<feColorMatrix type="matrix" values="0 0 0 0 0 0 0 0 0 0 0 0 0 0 0 0 0 0 0.25 0"/>
<feBlend mode="normal" in2="BackgroundImageFix" result="effect1_dropShadow_353_6540"/>
<feBlend mode="normal" in="SourceGraphic" in2="effect1_dropShadow_353_6540" result="shape"/>
</filter>
<filter id="filter5_d_353_6540" x="76.1523" y="0.539228" width="17.9455" height="22.4053" filterUnits="userSpaceOnUse" color-interpolation-filters="sRGB">
<feFlood flood-opacity="0" result="BackgroundImageFix"/>
<feColorMatrix in="SourceAlpha" type="matrix" values="0 0 0 0 0 0 0 0 0 0 0 0 0 0 0 0 0 0 127 0" result="hardAlpha"/>
<feOffset dy="4"/>
<feGaussianBlur stdDeviation="2"/>
<feComposite in2="hardAlpha" operator="out"/>
<feColorMatrix type="matrix" values="0 0 0 0 0 0 0 0 0 0 0 0 0 0 0 0 0 0 0.25 0"/>
<feBlend mode="normal" in2="BackgroundImageFix" result="effect1_dropShadow_353_6540"/>
<feBlend mode="normal" in="SourceGraphic" in2="effect1_dropShadow_353_6540" result="shape"/>
</filter>
<filter id="filter6_d_353_6540" x="56.9065" y="4.05984" width="18.6458" height="18.8847" filterUnits="userSpaceOnUse" color-interpolation-filters="sRGB">
<feFlood flood-opacity="0" result="BackgroundImageFix"/>
<feColorMatrix in="SourceAlpha" type="matrix" values="0 0 0 0 0 0 0 0 0 0 0 0 0 0 0 0 0 0 127 0" result="hardAlpha"/>
<feOffset dy="4"/>
<feGaussianBlur stdDeviation="2"/>
<feComposite in2="hardAlpha" operator="out"/>
<feColorMatrix type="matrix" values="0 0 0 0 0 0 0 0 0 0 0 0 0 0 0 0 0 0 0.25 0"/>
<feBlend mode="normal" in2="BackgroundImageFix" result="effect1_dropShadow_353_6540"/>
<feBlend mode="normal" in="SourceGraphic" in2="effect1_dropShadow_353_6540" result="shape"/>
</filter>
<filter id="filter7_d_353_6540" x="40.0264" y="4.05984" width="17.1853" height="18.8847" filterUnits="userSpaceOnUse" color-interpolation-filters="sRGB">
<feFlood flood-opacity="0" result="BackgroundImageFix"/>
<feColorMatrix in="SourceAlpha" type="matrix" values="0 0 0 0 0 0 0 0 0 0 0 0 0 0 0 0 0 0 127 0" result="hardAlpha"/>
<feOffset dy="4"/>
<feGaussianBlur stdDeviation="2"/>
<feComposite in2="hardAlpha" operator="out"/>
<feColorMatrix type="matrix" values="0 0 0 0 0 0 0 0 0 0 0 0 0 0 0 0 0 0 0.25 0"/>
<feBlend mode="normal" in2="BackgroundImageFix" result="effect1_dropShadow_353_6540"/>
<feBlend mode="normal" in="SourceGraphic" in2="effect1_dropShadow_353_6540" result="shape"/>
</filter>
<filter id="filter8_d_353_6540" x="31.7653" y="1.39887" width="15.5448" height="21.5457" filterUnits="userSpaceOnUse" color-interpolation-filters="sRGB">
<feFlood flood-opacity="0" result="BackgroundImageFix"/>
<feColorMatrix in="SourceAlpha" type="matrix" values="0 0 0 0 0 0 0 0 0 0 0 0 0 0 0 0 0 0 127 0" result="hardAlpha"/>
<feOffset dy="4"/>
<feGaussianBlur stdDeviation="2"/>
<feComposite in2="hardAlpha" operator="out"/>
<feColorMatrix type="matrix" values="0 0 0 0 0 0 0 0 0 0 0 0 0 0 0 0 0 0 0.25 0"/>
<feBlend mode="normal" in2="BackgroundImageFix" result="effect1_dropShadow_353_6540"/>
<feBlend mode="normal" in="SourceGraphic" in2="effect1_dropShadow_353_6540" result="shape"/>
</filter>
<filter id="filter9_d_353_6540" x="27.804" y="0" width="10.5233" height="22.7062" filterUnits="userSpaceOnUse" color-interpolation-filters="sRGB">
<feFlood flood-opacity="0" result="BackgroundImageFix"/>
<feColorMatrix in="SourceAlpha" type="matrix" values="0 0 0 0 0 0 0 0 0 0 0 0 0 0 0 0 0 0 127 0" result="hardAlpha"/>
<feOffset dy="4"/>
<feGaussianBlur stdDeviation="2"/>
<feComposite in2="hardAlpha" operator="out"/>
<feColorMatrix type="matrix" values="0 0 0 0 0 0 0 0 0 0 0 0 0 0 0 0 0 0 0.25 0"/>
<feBlend mode="normal" in2="BackgroundImageFix" result="effect1_dropShadow_353_6540"/>
<feBlend mode="normal" in="SourceGraphic" in2="effect1_dropShadow_353_6540" result="shape"/>
</filter>
<filter id="filter10_d_353_6540" x="20.1734" y="4.05984" width="14.1844" height="18.6464" filterUnits="userSpaceOnUse" color-interpolation-filters="sRGB">
<feFlood flood-opacity="0" result="BackgroundImageFix"/>
<feColorMatrix in="SourceAlpha" type="matrix" values="0 0 0 0 0 0 0 0 0 0 0 0 0 0 0 0 0 0 127 0" result="hardAlpha"/>
<feOffset dy="4"/>
<feGaussianBlur stdDeviation="2"/>
<feComposite in2="hardAlpha" operator="out"/>
<feColorMatrix type="matrix" values="0 0 0 0 0 0 0 0 0 0 0 0 0 0 0 0 0 0 0.25 0"/>
<feBlend mode="normal" in2="BackgroundImageFix" result="effect1_dropShadow_353_6540"/>
<feBlend mode="normal" in="SourceGraphic" in2="effect1_dropShadow_353_6540" result="shape"/>
</filter>
<filter id="filter11_d_353_6540" x="0" y="0.558766" width="26.2681" height="22.1474" filterUnits="userSpaceOnUse" color-interpolation-filters="sRGB">
<feFlood flood-opacity="0" result="BackgroundImageFix"/>
<feColorMatrix in="SourceAlpha" type="matrix" values="0 0 0 0 0 0 0 0 0 0 0 0 0 0 0 0 0 0 127 0" result="hardAlpha"/>
<feOffset dy="4"/>
<feGaussianBlur stdDeviation="2"/>
<feComposite in2="hardAlpha" operator="out"/>
<feColorMatrix type="matrix" values="0 0 0 0 0 0 0 0 0 0 0 0 0 0 0 0 0 0 0.25 0"/>
<feBlend mode="normal" in2="BackgroundImageFix" result="effect1_dropShadow_353_6540"/>
<feBlend mode="normal" in="SourceGraphic" in2="effect1_dropShadow_353_6540" result="shape"/>
</filter>
</defs>
</svg>
