<svg width="18" height="20" viewBox="0 0 18 20" fill="none" xmlns="http://www.w3.org/2000/svg">
<g clip-path="url(#clip0_353_6321)" filter="url(#filter0_d_353_6321)">
<path d="M18 9.99C18 4.475 13.968 0 9 0C4.032 0 0 4.475 0 9.99C0 13.0275 1.242 15.765 3.186 17.6025C3.204 17.6225 3.222 17.6225 3.222 17.6425C3.384 17.7825 3.546 17.9225 3.726 18.0625C3.816 18.1225 3.888 18.2013 3.978 18.2812C5.46533 19.4017 7.22105 20.0004 9.018 20C10.815 20.0004 12.5707 19.4017 14.058 18.2812C14.148 18.2213 14.22 18.1425 14.31 18.0812C14.472 17.9425 14.652 17.8025 14.814 17.6625C14.832 17.6425 14.85 17.6425 14.85 17.6225C16.758 15.7637 18 13.0275 18 9.99ZM9 18.7412C7.308 18.7412 5.76 18.1413 4.482 17.1425C4.5 16.9825 4.536 16.8237 4.572 16.6637C4.67926 16.2301 4.83656 15.8138 5.04 15.425C5.238 15.045 5.472 14.705 5.76 14.405C6.03 14.105 6.354 13.8263 6.678 13.6063C7.02 13.3863 7.38 13.2262 7.776 13.1062C8.17508 12.9867 8.58668 12.9266 9 12.9275C10.227 12.9178 11.4089 13.4408 12.294 14.385C12.708 14.845 13.032 15.385 13.266 16.0037C13.392 16.3638 13.482 16.7437 13.536 17.1425C12.2076 18.1802 10.6239 18.7384 9 18.7412ZM6.246 9.49125C6.0874 9.08778 6.00764 8.6515 6.012 8.21125C6.012 7.7725 6.084 7.3325 6.246 6.9325C6.408 6.5325 6.624 6.17375 6.894 5.87375C7.164 5.57375 7.488 5.335 7.848 5.155C8.208 4.975 8.604 4.895 9 4.895C9.414 4.895 9.792 4.975 10.152 5.155C10.512 5.335 10.836 5.575 11.106 5.87375C11.376 6.17375 11.592 6.53375 11.754 6.9325C11.916 7.3325 11.988 7.7725 11.988 8.21125C11.988 8.67125 11.916 9.09125 11.754 9.49C11.5977 9.88408 11.3781 10.2433 11.106 10.55C10.8298 10.8519 10.5066 11.0954 10.152 11.2688C9.40818 11.6084 8.57382 11.6084 7.83 11.2688C7.47541 11.0954 7.15215 10.8519 6.876 10.55C6.60354 10.2477 6.3892 9.88836 6.246 9.49125ZM14.598 16.1238C14.598 16.0837 14.58 16.0638 14.58 16.0238C14.403 15.398 14.142 14.8055 13.806 14.2663C13.4697 13.723 13.0563 13.2438 12.582 12.8475C12.2198 12.5447 11.8272 12.2897 11.412 12.0875C11.6009 11.9491 11.7759 11.7886 11.934 11.6087C12.2024 11.3144 12.438 10.9854 12.636 10.6287C13.0347 9.90101 13.2405 9.06311 13.23 8.21125C13.2356 7.58064 13.1253 6.9554 12.906 6.37375C12.6895 5.8133 12.3778 5.30445 11.988 4.875C11.5988 4.45004 11.1407 4.11074 10.638 3.875C10.1136 3.63174 9.5502 3.50968 8.982 3.51625C8.41373 3.51007 7.85028 3.63256 7.326 3.87625C6.81891 4.11148 6.35975 4.45798 5.976 4.895C5.59355 5.32698 5.28817 5.83552 5.076 6.39375C4.85668 6.9754 4.74643 7.60064 4.752 8.23125C4.752 8.67125 4.806 9.09125 4.914 9.49C5.022 9.91 5.166 10.29 5.364 10.6488C5.544 11.0087 5.796 11.3288 6.066 11.6288C6.228 11.8088 6.408 11.9675 6.606 12.1075C6.18956 12.3151 5.79681 12.5769 5.436 12.8875C4.968 13.2875 4.554 13.7662 4.212 14.2863C3.87254 14.8233 3.61134 15.4164 3.438 16.0438C3.42 16.0837 3.42 16.1238 3.42 16.1437C1.998 14.545 1.116 12.3875 1.116 9.99C1.116 5.175 4.662 1.23875 9 1.23875C13.338 1.23875 16.884 5.175 16.884 9.99C16.8816 12.2899 16.0597 14.4953 14.598 16.1238Z" fill="black"/>
</g>
<defs>
<filter id="filter0_d_353_6321" x="-4" y="0" width="26" height="28" filterUnits="userSpaceOnUse" color-interpolation-filters="sRGB">
<feFlood flood-opacity="0" result="BackgroundImageFix"/>
<feColorMatrix in="SourceAlpha" type="matrix" values="0 0 0 0 0 0 0 0 0 0 0 0 0 0 0 0 0 0 127 0" result="hardAlpha"/>
<feOffset dy="4"/>
<feGaussianBlur stdDeviation="2"/>
<feComposite in2="hardAlpha" operator="out"/>
<feColorMatrix type="matrix" values="0 0 0 0 0 0 0 0 0 0 0 0 0 0 0 0 0 0 0.25 0"/>
<feBlend mode="normal" in2="BackgroundImageFix" result="effect1_dropShadow_353_6321"/>
<feBlend mode="normal" in="SourceGraphic" in2="effect1_dropShadow_353_6321" result="shape"/>
</filter>
<clipPath id="clip0_353_6321">
<rect width="18" height="20" fill="white"/>
</clipPath>
</defs>
</svg>
