<svg width="322" height="84" viewBox="0 0 322 84" fill="none" xmlns="http://www.w3.org/2000/svg">
<path d="M2.09536 22.3851L37.4076 72.4025L72.7198 42.6005L108.032 80.6346L143.344 26.5532L178.656 50.4157L213.969 2.06554L249.281 81.5724L284.593 51.3535L319.905 55.3132" stroke="#3E5BA2"/>
<path d="M2.0951 23.9457C2.97564 23.9457 3.68946 23.2459 3.68946 22.3827C3.68946 21.5195 2.97564 20.8197 2.0951 20.8197C1.21456 20.8197 0.500736 21.5195 0.500736 22.3827C0.500736 23.2459 1.21456 23.9457 2.0951 23.9457Z" fill="white" stroke="#3E5BA2"/>
<path d="M37.4072 73.9646C38.2878 73.9646 39.0016 73.2648 39.0016 72.4015C39.0016 71.5383 38.2878 70.8385 37.4072 70.8385C36.5267 70.8385 35.8129 71.5383 35.8129 72.4015C35.8129 73.2648 36.5267 73.9646 37.4072 73.9646Z" fill="white" stroke="#3E5BA2"/>
<path d="M72.7194 44.163C73.5999 44.163 74.3137 43.4632 74.3137 42.5999C74.3137 41.7367 73.5999 41.0369 72.7194 41.0369C71.8388 41.0369 71.125 41.7367 71.125 42.5999C71.125 43.4632 71.8388 44.163 72.7194 44.163Z" fill="white" stroke="#3E5BA2"/>
<path d="M108.032 82.1954C108.912 82.1954 109.626 81.4956 109.626 80.6324C109.626 79.7691 108.912 79.0693 108.032 79.0693C107.151 79.0693 106.437 79.7691 106.437 80.6324C106.437 81.4956 107.151 82.1954 108.032 82.1954Z" fill="white" stroke="#3E5BA2"/>
<path d="M143.344 28.1159C144.225 28.1159 144.939 27.4161 144.939 26.5529C144.939 25.6896 144.225 24.9898 143.344 24.9898C142.464 24.9898 141.75 25.6896 141.75 26.5529C141.75 27.4161 142.464 28.1159 143.344 28.1159Z" fill="white" stroke="#3E5BA2"/>
<path d="M178.656 51.9752C179.537 51.9752 180.251 51.2754 180.251 50.4122C180.251 49.5489 179.537 48.8491 178.656 48.8491C177.776 48.8491 177.062 49.5489 177.062 50.4122C177.062 51.2754 177.776 51.9752 178.656 51.9752Z" fill="white" stroke="#3E5BA2"/>
<path d="M213.968 3.62682C214.849 3.62682 215.563 2.92703 215.563 2.06378C215.563 1.20053 214.849 0.500736 213.968 0.500736C213.088 0.500736 212.374 1.20053 212.374 2.06378C212.374 2.92703 213.088 3.62682 213.968 3.62682Z" fill="white" stroke="#3E5BA2"/>
<path d="M249.281 83.1343C250.161 83.1343 250.875 82.4345 250.875 81.5712C250.875 80.708 250.161 80.0082 249.281 80.0082C248.4 80.0082 247.686 80.708 247.686 81.5712C247.686 82.4345 248.4 83.1343 249.281 83.1343Z" fill="white" stroke="#3E5BA2"/>
<path d="M284.593 52.9141C285.474 52.9141 286.188 52.2143 286.188 51.351C286.188 50.4878 285.474 49.788 284.593 49.788C283.713 49.788 282.999 50.4878 282.999 51.351C282.999 52.2143 283.713 52.9141 284.593 52.9141Z" fill="white" stroke="#3E5BA2"/>
<path d="M319.905 56.873C320.785 56.873 321.499 56.1732 321.499 55.31C321.499 54.4467 320.785 53.7469 319.905 53.7469C319.024 53.7469 318.31 54.4467 318.31 55.31C318.31 56.1732 319.024 56.873 319.905 56.873Z" fill="white" stroke="#3E5BA2"/>
</svg>
