<svg width="322" height="68" viewBox="0 0 322 68" fill="none" xmlns="http://www.w3.org/2000/svg">
<path d="M2.09536 6.90055H37.4076L72.7198 55.7509L108.032 42.4129L143.344 65.0875L178.656 2.06554L213.969 61.8363L249.281 28.6581L284.593 24.49L319.905 3.06588" stroke="#9A0F0D"/>
<path d="M2.0951 8.46205C2.97564 8.46205 3.68946 7.76226 3.68946 6.89901C3.68946 6.03576 2.97564 5.33597 2.0951 5.33597C1.21456 5.33597 0.500736 6.03576 0.500736 6.89901C0.500736 7.76226 1.21456 8.46205 2.0951 8.46205Z" fill="white" stroke="#9A0F0D"/>
<path d="M37.4072 8.46205C38.2878 8.46205 39.0016 7.76226 39.0016 6.89901C39.0016 6.03576 38.2878 5.33597 37.4072 5.33597C36.5267 5.33597 35.8129 6.03576 35.8129 6.89901C35.8129 7.76226 36.5267 8.46205 37.4072 8.46205Z" fill="white" stroke="#9A0F0D"/>
<path d="M72.7194 57.3112C73.5999 57.3112 74.3137 56.6114 74.3137 55.7481C74.3137 54.8849 73.5999 54.1851 72.7194 54.1851C71.8388 54.1851 71.125 54.8849 71.125 55.7481C71.125 56.6114 71.8388 57.3112 72.7194 57.3112Z" fill="white" stroke="#9A0F0D"/>
<path d="M108.032 43.9752C108.912 43.9752 109.626 43.2754 109.626 42.4121C109.626 41.5489 108.912 40.8491 108.032 40.8491C107.151 40.8491 106.437 41.5489 106.437 42.4121C106.437 43.2754 107.151 43.9752 108.032 43.9752Z" fill="white" stroke="#9A0F0D"/>
<path d="M143.344 66.6491C144.225 66.6491 144.939 65.9493 144.939 65.0861C144.939 64.2228 144.225 63.523 143.344 63.523C142.464 63.523 141.75 64.2228 141.75 65.0861C141.75 65.9493 142.464 66.6491 143.344 66.6491Z" fill="white" stroke="#9A0F0D"/>
<path d="M178.656 3.62682C179.537 3.62682 180.251 2.92703 180.251 2.06378C180.251 1.20053 179.537 0.500736 178.656 0.500736C177.776 0.500736 177.062 1.20053 177.062 2.06378C177.062 2.92703 177.776 3.62682 178.656 3.62682Z" fill="white" stroke="#9A0F0D"/>
<path d="M213.968 63.3982C214.849 63.3982 215.563 62.6984 215.563 61.8352C215.563 60.972 214.849 60.2722 213.968 60.2722C213.088 60.2722 212.374 60.972 212.374 61.8352C212.374 62.6984 213.088 63.3982 213.968 63.3982Z" fill="white" stroke="#9A0F0D"/>
<path d="M249.281 30.2206C250.161 30.2206 250.875 29.5208 250.875 28.6575C250.875 27.7943 250.161 27.0945 249.281 27.0945C248.4 27.0945 247.686 27.7943 247.686 28.6575C247.686 29.5208 248.4 30.2206 249.281 30.2206Z" fill="white" stroke="#9A0F0D"/>
<path d="M284.593 26.0504C285.474 26.0504 286.188 25.3506 286.188 24.4874C286.188 23.6241 285.474 22.9243 284.593 22.9243C283.713 22.9243 282.999 23.6241 282.999 24.4874C282.999 25.3506 283.713 26.0504 284.593 26.0504Z" fill="white" stroke="#9A0F0D"/>
<path d="M319.905 4.6283C320.785 4.6283 321.499 3.9285 321.499 3.06525C321.499 2.20201 320.785 1.50221 319.905 1.50221C319.024 1.50221 318.31 2.20201 318.31 3.06525C318.31 3.9285 319.024 4.6283 319.905 4.6283Z" fill="white" stroke="#9A0F0D"/>
</svg>
