<svg width="33" height="24" viewBox="0 0 33 24" fill="none" xmlns="http://www.w3.org/2000/svg">
<path d="M32.5144 5.28557C32.22 4.89003 31.7983 4.56041 31.2906 4.32885C30.7829 4.0973 30.2064 3.97172 29.6174 3.96437H7.80483L6.81644 0.978462C6.71658 0.690227 6.49379 0.436697 6.18435 0.259164C5.87491 0.0816319 5.49706 -0.00944229 5.11233 0.000774857H1.70411C1.25215 0.000774857 0.818705 0.139972 0.499122 0.387745C0.17954 0.635518 0 0.97157 0 1.32197C0 1.67238 0.17954 2.00843 0.499122 2.2562C0.818705 2.50397 1.25215 2.64317 1.70411 2.64317H3.81721L8.52055 16.1987C8.62041 16.4869 8.84321 16.7404 9.15265 16.918C9.46209 17.0955 9.83994 17.1866 10.2247 17.1764H25.5617C25.8764 17.1756 26.1846 17.1073 26.4523 16.9791C26.72 16.8508 26.9367 16.6676 27.0783 16.4497L32.6678 7.78264C32.9101 7.38894 33.0228 6.95487 32.9961 6.51915C32.9693 6.08344 32.8038 5.65964 32.5144 5.28557ZM24.5051 14.534H11.5198L8.74209 6.60677H29.6174L24.5051 14.534Z" fill="white"/>
<path d="M9.37269 23.7819C10.7844 23.7819 11.9289 22.8946 11.9289 21.8001C11.9289 20.7056 10.7844 19.8183 9.37269 19.8183C7.96096 19.8183 6.81653 20.7056 6.81653 21.8001C6.81653 22.8946 7.96096 23.7819 9.37269 23.7819Z" fill="white"/>
<path d="M26.4139 23.7819C27.8256 23.7819 28.97 22.8946 28.97 21.8001C28.97 20.7056 27.8256 19.8183 26.4139 19.8183C25.0021 19.8183 23.8577 20.7056 23.8577 21.8001C23.8577 22.8946 25.0021 23.7819 26.4139 23.7819Z" fill="white"/>
</svg>
