<svg width="37" height="42" viewBox="0 0 37 42" fill="none" xmlns="http://www.w3.org/2000/svg">
<g filter="url(#filter0_d_353_3433)">
<path d="M36.5875 12.2022C36.3374 11.6803 35.9792 11.2455 35.5479 10.94C35.1166 10.6345 34.6268 10.4688 34.1265 10.4591H15.5963L14.7566 6.51985C14.6718 6.13959 14.4825 5.80511 14.2197 5.57089C13.9568 5.33668 13.6358 5.21653 13.309 5.23H10.4136C10.0297 5.23 9.66145 5.41365 9.38996 5.74053C9.11847 6.06741 8.96595 6.51076 8.96595 6.97304C8.96595 7.43533 9.11847 7.87868 9.38996 8.20556C9.66145 8.53244 10.0297 8.71608 10.4136 8.71608H12.2087L16.2043 26.5997C16.2891 26.9799 16.4784 27.3144 16.7413 27.5486C17.0042 27.7828 17.3252 27.903 17.652 27.8895H30.681C30.9484 27.8885 31.2103 27.7985 31.4377 27.6292C31.6651 27.46 31.8492 27.2183 31.9695 26.9308L36.7178 15.4965C36.9236 14.9771 37.0195 14.4044 36.9967 13.8296C36.974 13.2548 36.8334 12.6957 36.5875 12.2022ZM29.7835 24.4034H18.7522L16.3925 13.9452H34.1265L29.7835 24.4034Z" fill="white"/>
<path d="M16.9287 36.607C18.128 36.607 19.1002 35.4364 19.1002 33.9924C19.1002 32.5484 18.128 31.3778 16.9287 31.3778C15.7294 31.3778 14.7572 32.5484 14.7572 33.9924C14.7572 35.4364 15.7294 36.607 16.9287 36.607Z" fill="white"/>
<path d="M31.4052 36.607C32.6045 36.607 33.5767 35.4364 33.5767 33.9924C33.5767 32.5484 32.6045 31.3778 31.4052 31.3778C30.2059 31.3778 29.2337 32.5484 29.2337 33.9924C29.2337 35.4364 30.2059 36.607 31.4052 36.607Z" fill="white"/>
</g>
<defs>
<filter id="filter0_d_353_3433" x="4.91872" y="5.22898" width="36.1286" height="39.4723" filterUnits="userSpaceOnUse" color-interpolation-filters="sRGB">
<feFlood flood-opacity="0" result="BackgroundImageFix"/>
<feColorMatrix in="SourceAlpha" type="matrix" values="0 0 0 0 0 0 0 0 0 0 0 0 0 0 0 0 0 0 127 0" result="hardAlpha"/>
<feOffset dy="4"/>
<feGaussianBlur stdDeviation="2"/>
<feComposite in2="hardAlpha" operator="out"/>
<feColorMatrix type="matrix" values="0 0 0 0 0 0 0 0 0 0 0 0 0 0 0 0 0 0 0.25 0"/>
<feBlend mode="normal" in2="BackgroundImageFix" result="effect1_dropShadow_353_3433"/>
<feBlend mode="normal" in="SourceGraphic" in2="effect1_dropShadow_353_3433" result="shape"/>
</filter>
</defs>
</svg>
