<svg width="108" height="108" viewBox="0 0 108 108" fill="none" xmlns="http://www.w3.org/2000/svg">
<g filter="url(#filter0_d_350_1400)">
<path d="M100.479 49.9987C102.024 48.2003 103.106 46.0522 103.632 43.7408C104.158 41.4295 104.113 39.0246 103.499 36.7348C102.886 34.4451 101.723 32.3396 100.111 30.6011C98.4995 28.8626 96.4882 27.5435 94.2515 26.7583C94.6898 24.4285 94.5529 22.027 93.8529 19.7621C93.1529 17.4972 91.9108 15.4373 90.2344 13.7611C88.558 12.0849 86.4979 10.8431 84.2329 10.1433C81.9679 9.4436 79.5664 9.30709 77.2367 9.74564C76.4521 7.50842 75.1332 5.49652 73.3947 3.88462C71.6561 2.27272 69.5504 1.10954 67.2603 0.496083C64.9703 -0.117379 62.5651 -0.162585 60.2535 0.364389C57.942 0.891363 55.7941 1.97459 53.9962 3.52002C52.1978 1.97565 50.0497 0.893402 47.7383 0.367156C45.4269 -0.15909 43.022 -0.113438 40.7323 0.50015C38.4425 1.11374 36.3371 2.27673 34.5986 3.88824C32.86 5.49975 31.541 7.5111 30.7558 9.74781C28.4261 9.30996 26.0249 9.44709 23.7603 10.1473C21.4956 10.8475 19.4361 12.0897 17.7601 13.766C16.0842 15.4423 14.8426 17.5022 14.143 19.767C13.4433 22.0318 13.3068 24.4331 13.7453 26.7626C11.5086 27.5478 9.4972 28.8669 7.88569 30.6054C6.27418 32.344 5.11119 34.4494 4.4976 36.7392C3.88401 39.0289 3.83835 41.4338 4.3646 43.7452C4.89084 46.0566 5.97311 48.2046 7.51748 50.0031C5.97264 51.8014 4.89004 53.9497 4.36364 56.2613C3.83725 58.5729 3.88295 60.9781 4.4968 63.268C5.11066 65.558 6.27411 67.6635 7.88617 69.4019C9.49823 71.1403 11.5102 72.459 13.7474 73.2435C13.3086 75.5731 13.445 77.9746 14.1447 80.2395C14.8444 82.5044 16.0864 84.5643 17.7627 86.2404C19.439 87.9165 21.4991 89.1582 23.7641 89.8576C26.0291 90.5571 28.4306 90.6931 30.7601 90.254C31.5453 92.4907 32.8644 94.5021 34.6029 96.1136C36.3414 97.7251 38.4469 98.8881 40.7366 99.5017C43.0264 100.115 45.4312 100.161 47.7426 99.6347C50.054 99.1084 52.2021 98.0262 54.0005 96.4818C55.7989 98.0266 57.9472 99.1092 60.2588 99.6356C62.5704 100.162 64.9756 100.116 67.2655 99.5025C69.5555 98.8886 71.661 97.7252 73.3994 96.1131C75.1378 94.501 76.4565 92.4891 77.241 90.2518C79.5706 90.6905 81.9721 90.5541 84.2371 89.8544C86.502 89.1546 88.562 87.9127 90.2383 86.2365C91.9145 84.5602 93.1564 82.5003 93.8562 80.2353C94.5559 77.9703 94.6923 75.5688 94.2536 73.2392C96.4905 72.4542 98.5021 71.1351 100.114 69.3965C101.725 67.6579 102.888 65.5523 103.502 63.2624C104.115 60.9725 104.16 58.5675 103.634 56.2562C103.107 53.9448 102.024 51.7968 100.479 49.9987Z" fill="#A18E80"/>
</g>
<defs>
<filter id="filter0_d_350_1400" x="0" y="0" width="107.998" height="108" filterUnits="userSpaceOnUse" color-interpolation-filters="sRGB">
<feFlood flood-opacity="0" result="BackgroundImageFix"/>
<feColorMatrix in="SourceAlpha" type="matrix" values="0 0 0 0 0 0 0 0 0 0 0 0 0 0 0 0 0 0 127 0" result="hardAlpha"/>
<feOffset dy="4"/>
<feGaussianBlur stdDeviation="2"/>
<feComposite in2="hardAlpha" operator="out"/>
<feColorMatrix type="matrix" values="0 0 0 0 0 0 0 0 0 0 0 0 0 0 0 0 0 0 0.25 0"/>
<feBlend mode="normal" in2="BackgroundImageFix" result="effect1_dropShadow_350_1400"/>
<feBlend mode="normal" in="SourceGraphic" in2="effect1_dropShadow_350_1400" result="shape"/>
</filter>
</defs>
</svg>
