<svg width="39" height="37" viewBox="0 0 39 37" fill="none" xmlns="http://www.w3.org/2000/svg">
<g filter="url(#filter0_d_353_4383)">
<path d="M36.4001 18.6305H35.8401C36.0122 18.2178 36.1044 17.7817 36.1129 17.3411C36.0828 16.2923 35.5918 15.2969 34.7472 14.5721C33.9025 13.8474 32.7728 13.4522 31.6049 13.473C30.4571 13.4953 29.3371 13.7943 28.3621 14.3387C27.3872 14.8831 26.5931 15.6529 26.0631 16.5675C25.5332 15.6529 24.7391 14.8831 23.7642 14.3387C22.7892 13.7943 21.6692 13.4953 20.5214 13.473C19.3535 13.4522 18.2238 13.8474 17.3791 14.5721C16.5345 15.2969 16.0435 16.2923 16.0134 17.3411C16.0219 17.7817 16.1141 18.2178 16.2862 18.6305H15.7262C15.3485 18.6627 14.9815 18.7619 14.6467 18.9222C14.3118 19.0826 14.0157 19.301 13.7754 19.5647C13.535 19.8285 13.3553 20.1325 13.2466 20.459C13.1379 20.7855 13.1024 21.1282 13.142 21.4671V26.1089C13.0749 26.7332 13.2537 27.3589 13.6471 27.8772C14.0406 28.3955 14.6239 28.7735 15.2955 28.9455V34.58C15.3399 35.1649 15.6359 35.7113 16.1209 36.1035C16.6059 36.4958 17.2419 36.7032 17.8941 36.6817H34.2322C34.8938 36.7027 35.538 36.4883 36.0246 36.0851C36.5112 35.6819 36.8009 35.1225 36.8308 34.5285V28.9455C37.5024 28.7735 38.0857 28.3955 38.4792 27.8772C38.8726 27.3589 39.0514 26.7332 38.9843 26.1089V21.4671C39.0239 21.1282 38.9884 20.7855 38.8797 20.459C38.771 20.1325 38.5913 19.8285 38.3509 19.5647C38.1106 19.301 37.8145 19.0826 37.4796 18.9222C37.1448 18.7619 36.7778 18.6627 36.4001 18.6305ZM36.1129 21.4671V26.1089C36.1301 26.1941 36.1301 26.2815 36.1129 26.3667H27.4988V21.2093H36.1129C36.1301 21.2945 36.1301 21.3819 36.1129 21.4671ZM31.6049 16.0518C32.0116 16.0305 32.4113 16.1538 32.7176 16.3951C33.0238 16.6364 33.2121 16.9762 33.2416 17.3411C33.2121 17.7061 33.0238 18.0459 32.7176 18.2872C32.4113 18.5285 32.0116 18.6518 31.6049 18.6305H28.0731C28.3243 17.9417 28.7909 17.3323 29.4171 16.8751C30.0433 16.4178 30.8028 16.132 31.6049 16.0518ZM18.8847 17.3411C18.9142 16.9762 19.1025 16.6364 19.4087 16.3951C19.715 16.1538 20.1147 16.0305 20.5214 16.0518C21.321 16.1344 22.0774 16.4212 22.7008 16.8783C23.3243 17.3354 23.7887 17.9435 24.0388 18.6305H20.5214C20.1147 18.6518 19.715 18.5285 19.4087 18.2872C19.1025 18.0459 18.9142 17.7061 18.8847 17.3411ZM16.0134 21.4671C15.9961 21.3819 15.9961 21.2945 16.0134 21.2093H24.6275V26.3667H16.0134C15.9961 26.2815 15.9961 26.1941 16.0134 26.1089V21.4671ZM18.1669 28.9455H24.6275V34.103H18.1669V28.9455ZM27.4988 34.103V28.9455H33.9594V34.103H27.4988Z" fill="#231F20"/>
</g>
<defs>
<filter id="filter0_d_353_4383" x="9.06041" y="13.4722" width="34.0057" height="31.3439" filterUnits="userSpaceOnUse" color-interpolation-filters="sRGB">
<feFlood flood-opacity="0" result="BackgroundImageFix"/>
<feColorMatrix in="SourceAlpha" type="matrix" values="0 0 0 0 0 0 0 0 0 0 0 0 0 0 0 0 0 0 127 0" result="hardAlpha"/>
<feOffset dy="4"/>
<feGaussianBlur stdDeviation="2"/>
<feComposite in2="hardAlpha" operator="out"/>
<feColorMatrix type="matrix" values="0 0 0 0 0 0 0 0 0 0 0 0 0 0 0 0 0 0 0.25 0"/>
<feBlend mode="normal" in2="BackgroundImageFix" result="effect1_dropShadow_353_4383"/>
<feBlend mode="normal" in="SourceGraphic" in2="effect1_dropShadow_353_4383" result="shape"/>
</filter>
</defs>
</svg>
