<svg width="20" height="24" viewBox="0 0 20 24" fill="none" xmlns="http://www.w3.org/2000/svg">
<path d="M18.3333 12.4613V14.4953C18.3333 15.0482 17.9499 15.5024 17.4749 15.5024H15.8666C14.9666 15.5024 14.1416 14.7224 14.0666 13.656C14.0166 13.034 14.2166 12.4514 14.5666 12.0466C14.8749 11.6714 15.2999 11.4542 15.7666 11.4542H17.4749C17.9499 11.4542 18.3333 11.9084 18.3333 12.4613Z" fill="#A18E80"/>
<path d="M12.8166 13.7858C12.7416 12.7491 13.0583 11.7321 13.6916 10.9915C14.2249 10.3497 14.9666 9.97453 15.7666 9.97453H16.2416C16.4749 9.97453 16.6666 9.74743 16.6333 9.47097C16.4083 7.55544 15.0083 6.07436 13.3333 6.07436H4.99996C3.1583 6.07436 1.66664 7.84178 1.66664 10.0239V16.9356C1.66664 19.1177 3.1583 20.8851 4.99996 20.8851H13.3333C15.0166 20.8851 16.4083 19.4041 16.6333 17.4885C16.6666 17.2121 16.4749 16.985 16.2416 16.985H15.8666C14.2833 16.985 12.9499 15.5829 12.8166 13.7858ZM10.8333 11.7518H5.83329C5.49162 11.7518 5.20829 11.426 5.20829 11.0113C5.20829 10.5966 5.49162 10.2707 5.83329 10.2707H10.8333C11.1749 10.2707 11.4583 10.6065 11.4583 11.0113C11.4583 11.4161 11.1749 11.7518 10.8333 11.7518Z" fill="#A18E80"/>
<path d="M11.8417 3.93011C12.0583 4.1967 11.8667 4.59165 11.55 4.59165H5.02501C4.11668 4.59165 3.26668 4.90762 2.55835 5.45068C2.23335 5.69753 1.79169 5.43093 1.95002 5.00636C2.41669 3.71288 3.50835 2.81436 4.76668 2.81436H9.45C10.4167 2.81436 11.275 3.21919 11.8417 3.93011Z" fill="#A18E80"/>
</svg>
