<svg width="322" height="83" viewBox="0 0 322 83" fill="none" xmlns="http://www.w3.org/2000/svg">
<path d="M2.09536 2.06162L37.4076 19.9012L72.7198 34.3229L108.032 14.7327L143.344 80.5056L178.656 76.0874L213.969 11.3982L249.281 62.9161L284.593 47.6608L319.905 78.4215" stroke="#B49F2F"/>
<path d="M2.0951 3.62682C2.97564 3.62682 3.68946 2.92703 3.68946 2.06378C3.68946 1.20053 2.97564 0.500736 2.0951 0.500736C1.21456 0.500736 0.500736 1.20053 0.500736 2.06378C0.500736 2.92703 1.21456 3.62682 2.0951 3.62682Z" fill="white" stroke="#B49F2F"/>
<path d="M37.4072 21.4655C38.2878 21.4655 39.0016 20.7657 39.0016 19.9025C39.0016 19.0392 38.2878 18.3394 37.4072 18.3394C36.5267 18.3394 35.8129 19.0392 35.8129 19.9025C35.8129 20.7657 36.5267 21.4655 37.4072 21.4655Z" fill="white" stroke="#B49F2F"/>
<path d="M72.7194 35.8891C73.5999 35.8891 74.3137 35.1893 74.3137 34.326C74.3137 33.4628 73.5999 32.763 72.7194 32.763C71.8388 32.763 71.125 33.4628 71.125 34.326C71.125 35.1893 71.8388 35.8891 72.7194 35.8891Z" fill="white" stroke="#B49F2F"/>
<path d="M108.032 16.2978C108.912 16.2978 109.626 15.598 109.626 14.7347C109.626 13.8715 108.912 13.1717 108.032 13.1717C107.151 13.1717 106.437 13.8715 106.437 14.7347C106.437 15.598 107.151 16.2978 108.032 16.2978Z" fill="white" stroke="#B49F2F"/>
<path d="M143.344 82.0702C144.225 82.0702 144.939 81.3704 144.939 80.5072C144.939 79.6439 144.225 78.9441 143.344 78.9441C142.464 78.9441 141.75 79.6439 141.75 80.5072C141.75 81.3704 142.464 82.0702 143.344 82.0702Z" fill="white" stroke="#B49F2F"/>
<path d="M178.656 77.6536C179.537 77.6536 180.251 76.9538 180.251 76.0905C180.251 75.2273 179.537 74.5275 178.656 74.5275C177.776 74.5275 177.062 75.2273 177.062 76.0905C177.062 76.9538 177.776 77.6536 178.656 77.6536Z" fill="white" stroke="#B49F2F"/>
<path d="M213.968 12.9648C214.849 12.9648 215.563 12.265 215.563 11.4017C215.563 10.5385 214.849 9.83868 213.968 9.83868C213.088 9.83868 212.374 10.5385 212.374 11.4017C212.374 12.265 213.088 12.9648 213.968 12.9648Z" fill="white" stroke="#B49F2F"/>
<path d="M249.281 64.4819C250.161 64.4819 250.875 63.7821 250.875 62.9188C250.875 62.0556 250.161 61.3558 249.281 61.3558C248.4 61.3558 247.686 62.0556 247.686 62.9188C247.686 63.7821 248.4 64.4819 249.281 64.4819Z" fill="white" stroke="#B49F2F"/>
<path d="M284.593 49.2251C285.474 49.2251 286.188 48.5253 286.188 47.662C286.188 46.7988 285.474 46.099 284.593 46.099C283.713 46.099 282.999 46.7988 282.999 47.662C282.999 48.5253 283.713 49.2251 284.593 49.2251Z" fill="white" stroke="#B49F2F"/>
<path d="M319.905 79.9851C320.785 79.9851 321.499 79.2853 321.499 78.4221C321.499 77.5588 320.785 76.859 319.905 76.859C319.024 76.859 318.31 77.5588 318.31 78.4221C318.31 79.2853 319.024 79.9851 319.905 79.9851Z" fill="white" stroke="#B49F2F"/>
</svg>
