<svg width="95" height="50" viewBox="0 0 95 50" fill="none" xmlns="http://www.w3.org/2000/svg">
<path d="M0 2.5C0 1.11929 1.11929 0 2.5 0H92.5C93.8807 0 95 1.11929 95 2.5C95 3.88071 93.8807 5 92.5 5H2.5C1.11929 5 0 3.88071 0 2.5Z" fill="#A18E80"/>
<path d="M0 17.5C0 16.1193 1.11929 15 2.5 15H92.5C93.8807 15 95 16.1193 95 17.5C95 18.8807 93.8807 20 92.5 20H2.5C1.11929 20 0 18.8807 0 17.5Z" fill="#A18E80"/>
<path d="M0 32.5C0 31.1193 1.11929 30 2.5 30H92.5C93.8807 30 95 31.1193 95 32.5C95 33.8807 93.8807 35 92.5 35H2.5C1.11929 35 0 33.8807 0 32.5Z" fill="#A18E80"/>
<path d="M0 47.5C0 46.1193 1.11929 45 2.5 45H92.5C93.8807 45 95 46.1193 95 47.5C95 48.8807 93.8807 50 92.5 50H2.5C1.11929 50 0 48.8807 0 47.5Z" fill="#A18E80"/>
</svg>
