<svg width="10" height="7" viewBox="0 0 10 7" fill="none" xmlns="http://www.w3.org/2000/svg">
<path d="M0.712927 6.85735C0.531715 6.85735 0.350502 6.78348 0.20744 6.62517C-0.0691467 6.31911 -0.0691467 5.81252 0.20744 5.50646L3.2594 2.12924C3.412 1.96037 3.61229 1.87594 3.83165 1.89705C4.04148 1.91816 4.23223 2.0448 4.35621 2.24533C4.87356 3.10666 6.07585 3.22363 6.74952 2.47818L8.7816 0.229546C9.05819 -0.0765153 9.51599 -0.0765153 9.79258 0.229546C10.0692 0.535607 10.0692 1.04219 9.79258 1.34825L5.78684 5.78086C5.63424 5.94972 5.43395 6.03415 5.21459 6.01305C5.00476 5.99194 4.81401 5.86529 4.69003 5.66477C4.17269 4.80344 2.97039 4.68647 2.29673 5.43193L1.21841 6.62517C1.07535 6.78348 0.894139 6.85735 0.712927 6.85735Z" fill="#16C098"/>
</svg>
