<svg width="24" height="29" viewBox="0 0 24 29" fill="none" xmlns="http://www.w3.org/2000/svg">
<g filter="url(#filter0_d_353_4874)">
<path d="M19.0677 8.45906H18.6804C18.7994 8.0723 18.8632 7.66365 18.8691 7.25073C18.8483 6.26786 18.5086 5.33495 17.9244 4.65575C17.3401 3.97655 16.5587 3.60625 15.7508 3.62573C14.9568 3.64659 14.1821 3.92679 13.5076 4.43699C12.8332 4.94719 12.284 5.66861 11.9174 6.52573C11.5507 5.66861 11.0015 4.94719 10.3271 4.43699C9.65265 3.92679 8.87791 3.64659 8.08395 3.62573C7.27604 3.60625 6.49461 3.97655 5.91034 4.65575C5.32606 5.33495 4.98642 6.26786 4.96559 7.25073C4.97146 7.66365 5.03528 8.0723 5.15428 8.45906H4.76697C4.50564 8.48926 4.25182 8.58218 4.02019 8.73245C3.78856 8.88273 3.5837 9.08739 3.41748 9.33458C3.25125 9.58178 3.12694 9.86662 3.05174 10.1726C2.97655 10.4786 2.95195 10.7998 2.97938 11.1174V15.4674C2.93298 16.0525 3.05662 16.6389 3.32879 17.1246C3.60095 17.6103 4.00443 17.9645 4.46904 18.1257V23.4061C4.4997 23.9542 4.70445 24.4663 5.03995 24.8339C5.37546 25.2015 5.81537 25.3958 6.26657 25.3757H17.5681C18.0258 25.3954 18.4714 25.1945 18.808 24.8166C19.1446 24.4387 19.345 23.9145 19.3657 23.3578V18.1257C19.8303 17.9645 20.2338 17.6103 20.5059 17.1246C20.7781 16.6389 20.9017 16.0525 20.8553 15.4674V11.1174C20.8828 10.7998 20.8582 10.4786 20.783 10.1726C20.7078 9.86662 20.5835 9.58178 20.4172 9.33458C20.251 9.08739 20.0462 8.88273 19.8145 8.73245C19.5829 8.58218 19.3291 8.48926 19.0677 8.45906ZM18.8691 11.1174V15.4674C18.881 15.5473 18.881 15.6292 18.8691 15.7091H12.9105V10.8757H18.8691C18.881 10.9556 18.881 11.0375 18.8691 11.1174ZM15.7508 6.0424C16.0321 6.02245 16.3086 6.13803 16.5204 6.36414C16.7323 6.59026 16.8625 6.90874 16.8829 7.25073C16.8625 7.59272 16.7323 7.91121 16.5204 8.13732C16.3086 8.36344 16.0321 8.47901 15.7508 8.45906H13.3077C13.4815 7.81354 13.8042 7.24246 14.2374 6.81396C14.6706 6.38545 15.1959 6.11762 15.7508 6.0424ZM6.95181 7.25073C6.97221 6.90874 7.10241 6.59026 7.31427 6.36414C7.52613 6.13803 7.80262 6.02245 8.08395 6.0424C8.63703 6.11981 9.16024 6.38864 9.59152 6.817C10.0228 7.24535 10.344 7.81525 10.5171 8.45906H8.08395C7.80262 8.47901 7.52613 8.36344 7.31427 8.13732C7.10241 7.91121 6.97221 7.59272 6.95181 7.25073ZM4.96559 11.1174C4.95367 11.0375 4.95367 10.9556 4.96559 10.8757H10.9242V15.7091H4.96559C4.95367 15.6292 4.95367 15.5473 4.96559 15.4674V11.1174ZM6.45526 18.1257H10.9242V22.9591H6.45526V18.1257ZM12.9105 22.9591V18.1257H17.3794V22.9591H12.9105Z" fill="#6A707C"/>
</g>
<defs>
<filter id="filter0_d_353_4874" x="-1.03149" y="3.625" width="25.8977" height="29.7539" filterUnits="userSpaceOnUse" color-interpolation-filters="sRGB">
<feFlood flood-opacity="0" result="BackgroundImageFix"/>
<feColorMatrix in="SourceAlpha" type="matrix" values="0 0 0 0 0 0 0 0 0 0 0 0 0 0 0 0 0 0 127 0" result="hardAlpha"/>
<feOffset dy="4"/>
<feGaussianBlur stdDeviation="2"/>
<feComposite in2="hardAlpha" operator="out"/>
<feColorMatrix type="matrix" values="0 0 0 0 0 0 0 0 0 0 0 0 0 0 0 0 0 0 0.25 0"/>
<feBlend mode="normal" in2="BackgroundImageFix" result="effect1_dropShadow_353_4874"/>
<feBlend mode="normal" in="SourceGraphic" in2="effect1_dropShadow_353_4874" result="shape"/>
</filter>
</defs>
</svg>
