<svg width="25" height="30" viewBox="0 0 25 30" fill="none" xmlns="http://www.w3.org/2000/svg">
<path opacity="0.4" d="M16.8641 2.47226H8.13486C4.34318 2.47226 2.08276 5.15504 2.08276 9.65521V20.0031C2.08276 24.5156 4.34318 27.1984 8.13486 27.1984H16.8536C20.6453 27.1984 22.9057 24.5156 22.9057 20.0155V9.65521C22.9162 5.15504 20.6557 2.47226 16.8641 2.47226Z" fill="#EBEBEB"/>
<path d="M12.5003 16.074C11.917 16.074 11.4586 15.5176 11.4586 14.8377C11.4586 14.1577 11.9274 13.6014 12.5003 13.6014C13.0732 13.6014 13.542 14.1577 13.542 14.8377C13.542 15.5176 13.0836 16.074 12.5003 16.074Z" fill="#292D32"/>
<path d="M16.6673 16.074C16.084 16.074 15.6256 15.5176 15.6256 14.8377C15.6256 14.1577 16.0944 13.6014 16.6673 13.6014C17.2402 13.6014 17.709 14.1577 17.709 14.8377C17.709 15.5176 17.2506 16.074 16.6673 16.074Z" fill="#292D32"/>
<path d="M8.33354 16.074C7.75021 16.074 7.29187 15.5176 7.29187 14.8377C7.29187 14.1577 7.76062 13.6014 8.33354 13.6014C8.90646 13.6014 9.37521 14.1577 9.37521 14.8377C9.37521 15.5176 8.91688 16.074 8.33354 16.074Z" fill="#292D32"/>
</svg>
