<svg width="11" height="9" viewBox="0 0 11 9" fill="none" xmlns="http://www.w3.org/2000/svg">
<path d="M0.699921 -0.000626515C0.522015 -0.000626515 0.344108 0.0771663 0.203656 0.243863C-0.0678853 0.566142 -0.0678853 1.09957 0.203656 1.42185L3.19994 4.97803C3.34976 5.15584 3.54639 5.24475 3.76175 5.22252C3.96775 5.2003 4.15502 5.06694 4.27675 4.85579C4.77027 3.9745 5.99248 3.85824 6.64331 4.63068L8.62141 6.97839C8.89295 7.30067 9.3424 7.30067 9.61394 6.97839C9.88548 6.65611 9.88548 6.12268 9.61394 5.8004L5.68127 1.13291C5.53145 0.955099 5.33482 0.866195 5.11946 0.888421C4.91346 0.910647 4.72619 1.044 4.60447 1.25515C4.11095 2.13644 2.88874 2.2527 2.23792 1.48026L1.19619 0.243863C1.05573 0.0771663 0.877827 -0.000626515 0.699921 -0.000626515Z" fill="#A18E80"/>
<path d="M10.2978 4.88518C9.9139 4.88518 9.59554 5.26303 9.59554 5.71867V5.93736C9.59554 6.58378 9.07152 7.1078 8.4251 7.1078C8.0412 7.1078 7.72284 7.48564 7.72284 7.94128C7.72284 8.39692 8.0412 8.77476 8.4251 8.77476H10.2978C10.6817 8.77476 11.0001 8.39692 11.0001 7.94128V5.71867C11.0001 5.26303 10.6817 4.88518 10.2978 4.88518Z" fill="#A18E80"/>
</svg>
