<svg width="38" height="156" viewBox="0 0 38 156" fill="none" xmlns="http://www.w3.org/2000/svg">
<g filter="url(#filter0_d_353_4571)">
<path d="M28.2873 4.69102H9.4291C8.17872 4.69102 6.97956 5.1851 6.09541 6.06456C5.21126 6.94402 4.71456 8.13683 4.71456 9.38058V28.1388C4.71456 29.3826 5.21126 30.5754 6.09541 31.4548C6.97956 32.3343 8.17872 32.8284 9.4291 32.8284H28.2873C29.5376 32.8284 30.7368 32.3343 31.6209 31.4548C32.5051 30.5754 33.0018 29.3826 33.0018 28.1388V9.38058C33.0018 8.13683 32.5051 6.94402 31.6209 6.06456C30.7368 5.1851 29.5376 4.69102 28.2873 4.69102ZM29.8588 28.1388C29.8588 28.5534 29.6932 28.951 29.3985 29.2442C29.1038 29.5373 28.7041 29.702 28.2873 29.702H9.4291C9.01231 29.702 8.61259 29.5373 8.31787 29.2442C8.02315 28.951 7.85758 28.5534 7.85758 28.1388V9.38058C7.85758 8.966 8.02315 8.5684 8.31787 8.27524C8.61259 7.98209 9.01231 7.81739 9.4291 7.81739H28.2873C28.7041 7.81739 29.1038 7.98209 29.3985 8.27524C29.6932 8.5684 29.8588 8.966 29.8588 9.38058V28.1388Z" fill="#231F20"/>
<path d="M28.2873 123.175H9.4291C8.17872 123.175 6.97956 123.669 6.09541 124.548C5.21126 125.428 4.71456 126.62 4.71456 127.864V146.622C4.71456 147.866 5.21126 149.059 6.09541 149.938C6.97956 150.818 8.17872 151.312 9.4291 151.312H28.2873C29.5376 151.312 30.7368 150.818 31.6209 149.938C32.5051 149.059 33.0018 147.866 33.0018 146.622V127.864C33.0018 126.62 32.5051 125.428 31.6209 124.548C30.7368 123.669 29.5376 123.175 28.2873 123.175ZM29.8588 146.622C29.8588 147.037 29.6932 147.435 29.3985 147.728C29.1038 148.021 28.7041 148.186 28.2873 148.186H9.4291C9.01231 148.186 8.61259 148.021 8.31787 147.728C8.02315 147.435 7.85758 147.037 7.85758 146.622V127.864C7.85758 127.45 8.02315 127.052 8.31787 126.759C8.61259 126.466 9.01231 126.301 9.4291 126.301H28.2873C28.7041 126.301 29.1038 126.466 29.3985 126.759C29.6932 127.052 29.8588 127.45 29.8588 127.864V146.622Z" fill="#231F20"/>
</g>
<defs>
<filter id="filter0_d_353_4571" x="0.698162" y="4.69102" width="36.3201" height="154.655" filterUnits="userSpaceOnUse" color-interpolation-filters="sRGB">
<feFlood flood-opacity="0" result="BackgroundImageFix"/>
<feColorMatrix in="SourceAlpha" type="matrix" values="0 0 0 0 0 0 0 0 0 0 0 0 0 0 0 0 0 0 127 0" result="hardAlpha"/>
<feOffset dy="4"/>
<feGaussianBlur stdDeviation="2"/>
<feComposite in2="hardAlpha" operator="out"/>
<feColorMatrix type="matrix" values="0 0 0 0 0 0 0 0 0 0 0 0 0 0 0 0 0 0 0.25 0"/>
<feBlend mode="normal" in2="BackgroundImageFix" result="effect1_dropShadow_353_4571"/>
<feBlend mode="normal" in="SourceGraphic" in2="effect1_dropShadow_353_4571" result="shape"/>
</filter>
</defs>
</svg>
